<?xml version="1.0" encoding="utf-8"?>
<!-- Generator: Adobe Illustrator 27.4.0, SVG Export Plug-In . SVG Version: 6.00 Build 0)  -->
<svg version="1.1" id="Layer_1" xmlns="http://www.w3.org/2000/svg" xmlns:xlink="http://www.w3.org/1999/xlink" x="0px" y="0px"
	 viewBox="0 0 115.4 111.2" style="enable-background:new 0 0 115.4 111.2;" xml:space="preserve">
<style type="text/css">
	.st0{fill:#071C48;}
	.st1{fill:#FC0019;}
</style>
<g>
	<g>
		<g>
			<g>
				<g>
					<g>
						<path class="st0" d="M83.2,53.6c-8.6-5.9-19.7-3.5-25.4,5.3c-4.8,7.4-12.1,8.3-15,8.3c-9.2,0-15.5-6.5-17.4-13.2h0
							c0-0.1,0-0.1-0.1-0.2c0-0.1,0-0.1-0.1-0.2c-0.7-2.8-0.9-4.1-0.9-7.1c0-16,16.5-33.9,40.2-33.9c24.3,0,38.2,18.5,41.7,28.7
							c-0.1-0.2-0.1-0.4-0.2-0.5C99.2,20.8,80.2,6.3,57.7,6.3C29.5,6.3,6.6,29.2,6.6,57.4c0,25.2,18.2,46.8,43.4,46.8
							c20.1,0,33.7-11.3,39.9-26.8C93.3,68.9,90.9,58.9,83.2,53.6z"/>
					</g>
					<g>
						<path class="st1" d="M106.6,42.4c-3-10-17-29.7-42.1-29.7c-23.7,0-40.2,17.9-40.2,33.9c0,3,0.2,4.3,0.9,7.1
							c-0.3-1.2-0.5-2.4-0.5-3.6c0-16.7,16.7-28.3,33.9-28.3c23.3,0,42.1,18.9,42.1,42.1c0,18.2-10.5,34-25.8,41.6l0,0
							c19.7-7.1,33.7-26,33.7-48.1C108.8,52.2,108.1,47.6,106.6,42.4z"/>
					</g>
				</g>
			</g>
		</g>
	</g>
</g>
</svg>
