<?xml version="1.0" encoding="utf-8"?>
<!-- Generator: Adobe Illustrator 27.4.0, SVG Export Plug-In . SVG Version: 6.00 Build 0)  -->
<svg version="1.1" id="_x3C_레이어_x3E_" xmlns="http://www.w3.org/2000/svg" xmlns:xlink="http://www.w3.org/1999/xlink"
	 x="0px" y="0px" viewBox="0 0 120.8 130.5" style="enable-background:new 0 0 120.8 130.5;" xml:space="preserve">
<style type="text/css">
	.st0{fill:#C1001E;}
	.st1{fill:#2870B1;}
	.st2{fill:#2F8026;}
</style>
<g>
	<path class="st0" d="M70.4,20.1c0.2,0.4,0.5,0.7,0.6,1c0.3,1.1,1.3,1.7,1.4,2.8c0,0.4,0.5,0.5,0.8,0.7c0.3,0.3,0.1,0.7,0.6,1.2
		c0.2,0.2,0.1,0.5,0.1,0.9c0.2,0.2,0.5,0.3,0.7,0.5c2.2,3.4,2.4,7.4-0.1,11.1c-0.4,0.4-0.8,1-1,1.5c-0.2,0.2-0.6,0.4-0.8,0.6
		c0,0.4,0.3,0.5,0.5,0.9c-1.1,0.3-1.2,1.2-2.1,1.8c-0.2,0-0.7,0.1-0.9,0.1c-0.6,0.6-1.3,0.8-1.9,1.3c-0.2,0.2-0.1,0.7-0.1,0.9
		c-1,0.8-2.6,1.3-4.2,1.3c-0.2,0-0.4,0.6-0.6,0.6c-1.1,0.1-2.5,0.1-3.6,0.2c-0.5-0.1-0.7-0.5-1.2-0.6c-0.4,0-0.9,0.1-1.4,0
		c-0.7-0.5-1.7-0.6-2.4-0.9c-0.5-0.1-1.3,0.3-1.8,0c-1.5-1.3-3-2.6-3.9-4c-0.6-0.9-1.5-1.1-1.8-2c0-0.4,0.1-0.9-0.3-1.1
		c-0.9-0.3-0.5-0.9-0.6-1.4c-0.3-0.5-0.3-0.9-0.8-1.4c-0.3-0.5,0.1-1.3-0.2-2c0-0.2,0.2-0.4,0.2-0.6c-0.3-1.1,0.2-2.2,0.1-3.1
		c-0.1-0.5,0.1-1.3,0.3-1.8c0.6-1.2,1.1-2.5,2.1-3.7c0-0.2-0.1-0.5-0.1-0.7c0.2-0.2,0.4-0.2,0.6-0.4c0.4-0.9,0.7-1.7,1.3-2.5
		c0.8-1,2.1-1.8,3.1-2.8c0.6-0.6,1.5-1,2-2c0.2-0.2,0.9,0.1,1.1-0.1c0.6-0.6,1.5-0.5,2.2-0.9c0.6-0.4,0.5,0.5,1.2,0.3
		c0.5,0,0.7-0.2,1.1-0.5c0.7-0.2,1.4,0.2,2.1,0.4c0.7-0.1,1.4,0.1,2.1,0.5c1,0.6,3.2,0.4,3.6,1.7C68.9,18.6,69.9,19.3,70.4,20.1z"/>
	<path class="st1" d="M108.5,34.4c0-0.6,0-0.9-0.2-1.5c-0.1-0.6,0.4-1.2,0.2-2c-0.1-0.2-0.4-0.5-0.4-0.6c0.4-1.2,0.4-2.3,0.3-3.6
		c-0.1-0.4-0.2-0.6-0.3-0.8c0-0.2,0.1-0.5,0.2-0.9c0-1.1-0.3-1.9-0.6-2.9c-0.1-0.4-0.4-0.6-0.4-1.2c-0.1-0.2-0.4-0.5-0.4-0.6
		c0.3-1.6-0.5-2.8-0.7-4.3c-0.4-1.7-2-2.8-2.5-4.5c0-0.2,0.6-0.1,0.7-0.1c1.3,1.2,2.7,2.6,3,4.3c0.2,0.6,0.1,1.1,0.4,1.5
		c1.1,1.3,1.3,3,1.5,4.7c0,0.2,0.3,0.1,0.4,0.3c0,0.2-0.1,0.5,0,0.7c0.8,0.9,0.3,1.9,0.5,2.8c0.1,0.4,0.2,0.6,0.3,0.8
		c0,0.2-0.4,0.6-0.5,0.8c0.7,0.9,1,2,0.8,3.1c0.8,0.4,0.4,1.4,0.6,2.1c0.1,0.2,0.3,0.2,0.4,0.3c0.2-0.3,0.4-0.6,0.5-1
		c0.1-1.4,0.2-2.7-0.1-4c-0.2-0.6-0.3-1.2,0.1-1.6c-0.3-0.1-0.4-0.5-0.5-0.7c-0.6-2.3-0.8-4.9-1.5-7.2c0,0,0.2-0.1,0.2-0.3
		c-0.2-2.1-1.8-4-2.6-6.1c-0.1-0.4-0.7-0.8-1-1.2c0,0,0-0.2,0-0.4c0.8,0.1,1.4,0.9,1.8,1.5c0.8,1.2,1.8,2.5,2.1,3.8
		c0.4,1.2,1.1,2.4,1.4,3.6c0.2,0.8,0.7,1.3,1.1,1.9c0.2,0.6,0.1,1.1,0.2,1.7c0.2,1.3,0.6,2.6,0.9,4c0.3,1,0.5,2.1,0.1,2.9
		c-0.4,1.5,0.6,3.2,1,4.6c0.2,0.6-0.1,1.3-0.3,1.7c0,0.2,0.3,0.4,0.2,0.6c-0.3,0.7-0.1,1.3-0.2,2c-0.2,0.1,0.2,0.6,0,0.9
		c-0.2,0.1-0.3,0.1-0.5,0.3c-0.3,0.5,0,1.1-0.1,1.6c-0.5,1-0.3,2.3-1.2,3c-0.4,0.1-0.4,0.3-0.6,0.4c0.2,0,0.3,0.2,0.4,0.5
		c-0.2,0.1-0.4,0.1-0.5,0.2c-0.1,0.3,0.6,0.8,0.7,1c-0.3,1.4-1.3,2.6-1.3,4.3c-0.1,0.4-0.2,0.9-0.2,1.2c-0.3,0.8-0.9,1.4-1.2,2.3
		c-0.1,0.3-0.7,0.4-0.8,0.7c-0.4,0.5-0.4,1.2-0.7,1.9c-0.2,0.3-0.7,0.2-1.1,0.5c-0.4,0.6-0.4,1.2-0.7,1.9c-0.5,0.8-1.1,1.7-1.5,2.5
		c-0.5,1.2-1.5,2.3-2.4,3.1c-0.2,0-0.5,0.1-0.7,0.2c-0.5,1-1.1,1.7-2.2,2.2c-0.2,0-0.4,0.7-0.6,0.9c-0.7,0.6-1.2,1.2-2.1,1.7
		c-0.3,0.1-0.5,0.2-0.9-0.4c-1.2,2.1-2.8,3.7-4.5,5.2c-0.9,0.5-1.8,0.5-2.4,1.1c-1.9,1.9-5.1,4-5.4,4.3c-0.2,0-0.7,0.9-0.7,0.9
		c-0.6,0.1-0.3,0.1-0.9,0c0,0,0,1-0.8,1.1c-1.7,0.3-2.1,2.3-2.3,3.1c-0.1,0.4-0.3,0.1-0.5,0.3c-0.2,0.2-0.1,0.4-0.3,0.6
		c-0.7,0.5-1.4,1.3-2,2c-0.2,0.2-0.3-0.1-0.5,0.1c-0.2,0.2-1.1,1.3-1.4,2.2c-0.8,1.7-1.6,3.2-2.7,4.4c-0.3,0.3,0.6,1.4,0.5,1.8
		c-0.2,0.5-0.7,0.6-1,1.2c-0.2,1.3-0.3,2.8-0.5,4.2c-0.4,1.4,0.1,2.4,0.3,3.6c0.2,1-0.1,2.4,0,3.4c0.1,0.8,0.6,1.7,0.5,2.5
		c0,1.2-0.2,1,0,2.1c0,0.6-0.2,1.2-0.1,1.6c0,0.8-0.2,1.3-0.2,2.1c-0.2,0.2-0.5,0.6-0.5,0.8c-0.1,2-1.4,3.7-2.8,5
		c-0.8,0.5-1.6,1.4-2.5,1.3c-0.5,0-2.1,1-2.6,1.1c-1.4,0.4-2.6,0.4-3.9,0.2c-1.5-0.4-2.7-0.8-3.8-2.3c-0.6-0.7-1.7-0.4-2.1-1.5
		c-0.1-0.4-1-0.6-1.1-0.9c-0.8-0.7-1.2-1.6-1.8-2.5c-0.4-1.1-0.1-1.8-0.6-2.8c-0.5-0.6-0.7-1.1-1.2-1.7c-0.7-0.8,0.2-2-0.3-2.9
		c-0.3-0.2-0.7-0.6-0.8-1c-0.3-0.8-0.2-2-0.7-2.9c-0.3-1-0.1-4.8,0.1-5.8c0-0.2-0.5-0.5-0.5-0.7c0.1-1.5,0.6-2.9,0.5-4.4
		c0.2-0.8,0.1-1.5,0.8-2.1c0,0-0.3-0.3-0.3-0.5c0.4-1.2,0.4-2.1,0.7-3.3c0-0.2,0.5-0.3,0.5-0.5c-0.2-0.9-0.2-2.7-0.1-3.5
		c0.1-0.4,1.1-1,1.4-1.4c0-0.2-0.1-0.7,0.2-1.4c0.1-0.2,0.4-0.1,0.6-0.3c0-0.2-0.1-0.4-0.1-0.6c0.1-0.6,1.1-1,1.2-1.4
		c0.4-1.4,1.1-1.9,1.8-3.1c0.3-0.5,0.4-1,0.8-1.5c0.2-0.1,0.3,0,0.3-0.2c0-0.2-0.1-0.6,0-0.7c0.4-0.5,1-0.9,1.1-1.4
		c0.3-0.7,0.5-1.2,0.9-1.6c0.7-0.6,1.5-1.1,2-1.9c0.4-0.5,0.9-0.3,1.3-0.8c0.6-0.6,0.7-1.5,1.2-2.1c1-1.2,2.1-2.1,3.3-2.9
		c0.9-0.7,2.1-1,3-1.5c0.9-0.7,1.5-2,2.4-2.6c0.6-0.4,1.2-0.5,1.8-0.9c0.6-0.4,1-1.2,1.9-1.4c1.9-0.5,0.5,0,2.3-0.7
		c1.1-0.7,0.6-0.8,1.7-1.5c1.8-1.1,2.7-1.7,2.9-1.7c0.2-0.1,0.4-0.3,0.4-0.6c0.4-0.6,2.7-2.3,3.1-2.4c0.3-0.1,0.7,0.3,1.1-0.1
		c0.2-0.3-0.2-0.6,0-0.9c0.6-0.6,1.2-1.4,1.7-1.8c0.2-0.1,0.6,0.1,1,0c0.2-0.1,0.3-0.5,0.4-0.6c0.2-0.3-0.2-0.8,0-1.1
		c0.3-0.5,0.5-1,0.9-1.1c0.5-0.2,1.3-0.6,1.2-1c0.1-0.7,0.4-1.4,1.1-1.7c0-0.2,0.1-0.4,0.1-0.5c0.4-0.5,0.8-0.7,1.2-1.2
		c0.4-0.6,0.3-1.4,0.5-1.9c0.8-0.9,1.6-1.6,1.8-2.9c-0.1-0.6-0.4-1.4-0.2-1.9c0.2-0.3,0.9-0.5,1-0.9c0.1-0.7-0.2-1.5-0.3-2.2
		c0.1-0.5,0.7-0.9,0.6-1.5c-0.1-1.5,0-2.9-0.2-4.4c0.5-0.1,0.6-0.4,0.6-0.8c-0.1-1.1-0.8-2.2-1.1-3.3c0-0.7,0.6-1.3,0.5-2.1
		c-0.1-0.6-0.6-1.2-1.2-1.7c-0.5-0.7-0.2-1.7-0.4-2.4c-0.2-0.9-0.9-1.6-1-2.8c-0.1-0.6-0.7-0.5-1-1.1c-0.2-0.8-0.4-1.5-0.4-2.4
		c-0.1-0.4-0.6-0.3-0.9-0.6c-0.6-1-0.4-3.2-1.8-3.7c0.1-0.7-0.5-0.8-0.7-1.4c0.8,0,1.6,0.3,2.1,1.4c0.1,0.2,0.6,0.3,0.8,0.3
		C92.6,6,92.6,7.1,93,7.4c0.6,0.5,1.4,0.3,1.7,0.9c0.3,1,1.1,1.5,1.4,2.3c0,0.2,0.1,0.6,0.2,0.8c0.6,0.5,0.6,1,1.1,1.5
		c1,1.1,1.9,2.2,1.5,3.8c-0.3,0.7,0.6,0.5,0.8,0.9c0.6,1.1,0.4,2.4,1.2,3.4c-0.2,1.8,0.7,3.4,1.2,5c-0.9,1.4-0.4,3.9,0.3,5.4
		c0,0,0.5-0.1,0.5-0.2c0.2-0.9,1.7-1.2,1.5-1.6c-0.3-1-0.8-3-0.8-3.9c0.1-1.4,0.2-2.7-0.1-4.2c-0.1-0.2-0.3-0.4-0.4-0.6
		c-0.2-0.8-0.4-1.5-0.2-2.4c-0.1-0.4-0.4-0.6-0.5-1c0-0.2,0.1-0.5,0.1-0.7c0.3-0.1,0.8,0.2,1.1,0.2c0.3,0.2,0,0.7,0.2,0.9
		c0.5,0.8,1.3,1.2,1.4,2.1c0,0.2-0.1,0.5-0.1,0.7c0.1,1.1,0.8,2,1,2.9c0.1,0.6-0.4,1.4-0.2,2c0.7,1.4,0.8,3.1,0.6,4.7
		c-0.1,0.7,0.8,1.3,0.5,1.7c-0.2,0.5,0.1,0.6-0.2,1.1c0,0.2-0.4,0.3-0.4,0.5c0.5,1-0.2,2.6-0.4,3.4c0,0.2,0.5,0.4,0.7-0.3
		c0.1-0.4,0.7-0.4,1.1-0.5C108.3,35.8,108.5,35.1,108.5,34.4z M111.9,37.9c0-0.9,0.4-1.5,0.3-2.5c-0.3-1-1,0-1.5,0.1
		c0.3,1.1-0.2,2-0.5,3c-0.2,0.3-0.4,1.2,0.1,1.1C111.1,39.7,111.9,39,111.9,37.9z M110.6,42.7c0.2-0.3,0.1-0.8-0.2-1.1
		c-0.4-0.3-1,0.1-1.3,0.6c-0.3,0.5-0.1,1.3,0.6,1.2C109.9,43.5,110.3,43,110.6,42.7z"/>
	<path class="st1" d="M101.2,12.9c0.8,0.6,1.2,1.7,1.9,2.6l-0.1,0.4c-1.2,1-2.2-0.7-2.5-1.6c-0.5-1-1-2-1.8-2.8
		c0-0.2,0.1-0.4,0.1-0.5c-0.4-0.5-1-1.1-0.4-1.4c0.2-0.3,0.6,0.3,1,0.6C100.1,11,100.2,12.1,101.2,12.9z"/>
	<path class="st1" d="M106,8.4c0,0.2-0.3,0.5-0.3,0.6c-0.6-0.5-1.1-1-1.6-1.9c-0.2,0-0.5-0.1-0.6-0.3c-0.2,0-0.1-0.2-0.1-0.4
		c0.5,0,0.9,0.4,1.4,0.7c0.2,0,0.4-0.1,0.5-0.1C105.7,7.4,106,7.8,106,8.4z"/>
	<path class="st2" d="M34.1,40.5c0.2,0.1,0.4,0.3,0.5,0.5c0.3,0.2,0.5,0.2,0.8,0.1c0.3,0,0.5,0.7,0.8,0.7c0.4,0.2,0.6,0.9,1,1.2
		c0.3,0.2,0.5,0.4,0.8,0.6c0.4,0.5,0.6,0.9,1,1.3c0.2,0.3,0.6,0.2,0.9,0.2c0.5,0.2,0.7,0.9,1.1,1.4c0.1,0,0.4,0.5,0.4,0.6
		c0.3,0.2,0.5,0.5,0.9,0.7c0.1,0.2,0.1,0.4,0.2,0.6c1,1.5,2.2,2.5,3,4.2c0,0,0.1,0.3,0.1,0.5c1,1,1.4,2.3,2.3,3.4
		c0.2,0.5,0.4,1.2,0.7,1.8c0.2,0.3,0.5,0.5,0.7,0.8c0.4,0.6,0.7,1.4,0.8,2.1c0,0.3-0.2,1.2-0.7,0.7c-0.6-0.6-0.6-1.5-1.2-2
		c0-0.1-0.2-0.5-0.3-0.7c-0.3-0.3-0.7-0.3-0.8-0.7c0-0.4-0.5-0.8-0.7-1.1c-0.6-0.9-1.5-1.2-2.3-2.2c-0.1,0-0.3,0-0.4,0.1
		c-0.1,0.3-0.6,0.7-0.2,1.2c0.5,0.3,0.8,0.9,1.4,1.2c0.4,0.3,0.5,1.2,0.7,1.9c0.3,0.3,0.5,0.6,0.9,0.8c0.4,0.3,0.2,0.8,0.6,1.2
		c0,0.1-0.2,0.3-0.2,0.4c0.2,0.5,0.8,0.4,1.1,0.8c0.3-0.3,0.7-0.1,0.9,0.4c-0.4,0.4-0.3,0.7-0.5,1.1c-0.5,0.7,0.6,1.4,1.2,1.7
		c0.4,0,0.3,0.8,0.7,1.1c0.2,0.5,0.9,0.5,1.3,1.1c0.1,0.3-0.2,0.4-0.3,0.7c0,0.4,0.5,0.6,0.7,0.8c0.3,0.2,0.4,0.5,0.5,0.8
		c-0.4,0.1-1.2-0.4-1.6-0.5c-0.3-0.1-0.7-0.7-1.2-0.8c-0.2,0-0.3,0.4-0.5,0.3c-0.2,0-0.5-0.1-0.8-0.1c-0.3,0-1-0.8-1.2-0.8
		c-0.3-0.1-0.7,0.6-1.1,0.5c-1.2-0.2-1.2-0.3-1.6-0.4c-0.4-0.2-0.9-0.4-1.3-0.6c-0.3-0.1-0.2-0.5-0.4-0.6c-0.2-0.2-0.8-0.2-1-0.3
		c-1-0.6-1.9-1.9-2.7-2.3c-0.5-0.3-1-0.6-1.6-0.8c-0.3-0.2-0.5-0.6-0.9-0.7c-1.1-0.4-2-1.1-3.3-1.5c-2.4-0.7-4.5,0.7-6.4,1.7
		c-0.1,0-0.3,0-0.4,0.1c-0.5,0.4-1,0.6-1.4,0.9c-0.6,0.5-1.5,0.6-2.2,1c-0.2,0.1-0.2,0.5-0.4,0.6c-0.3,0.2-0.9,0.2-1.2,0.4
		c-0.3,0.2-0.3,0.5-0.6,0.7c-0.6,0.5-1.1,0.8-1.9,1.2c-0.4,0.2-4.1,0.8-4.7,0.9c-0.9,0-1.6,0.8-3,0.8c-2.1,0-4.3-0.1-6-1.4
		c-0.4-0.3-0.4-1.2-0.7-1.4c-0.8-0.5-0.7-1.5-0.9-2.3c-0.2-0.2-0.8-0.2-0.8-0.6c0.3-2.2,1.4-4.1,2.7-5.6c0.3-0.6,1-0.8,1-1.5
		c0,0,1.2-1.7,1.9-2.3c0.2-0.3-0.1-0.7,0.1-1c1.1-2.1,3.1-3.6,4.7-5.5c0.4-0.4,0.7-1,1.4-1.1c0.3,0,0.5,0,0.7-0.2
		c0.3-0.7,0.9-1.1,1.3-1.4c1.5-1.1,2.8-2.6,4.6-2.9c0.3-0.1,0.4-0.4,0.7-0.5c0.3-0.3,0.8,0.1,1.1-0.1c1.3-0.6,2.5-1.9,3.9-2
		c0.3-0.1,0.4-0.4,0.6-0.4c1.2,0.1,2.6-1,3.7,0.2C32,39.8,33.5,40,34.1,40.5z M43.3,53.3c0-0.1,0-0.3,0-0.4
		c-0.5-0.3-0.8-1.2-1.4-1.4c-0.1,0-0.4,0.1-0.4,0.3c0,0.9,0.3,1.5,0.7,2.2c0.2-0.6,0.6-0.6,0.8-0.1C43.1,53.8,43.3,53.5,43.3,53.3z"
		/>
</g>
</svg>
