<svg width="24" height="24" viewBox="0 0 24 24" fill="none" xmlns="http://www.w3.org/2000/svg">
<g clip-path="url(#clip0_13_1459)">
<path d="M11.999 2.00071C8.13067 1.99788 5.00575 5.31215 5.00001 9.41291C4.99735 11.2722 5.71422 12.8605 6.7947 14.2149C8.76518 16.6849 10.4892 19.2858 11.4305 22.4076C11.5155 22.6894 11.642 23.0095 12.0058 22.9997C12.4015 22.9891 12.5078 22.6304 12.6017 22.3268C13.485 19.4704 14.9608 17.0026 16.8257 14.7616C17.9342 13.4294 18.8231 11.8944 18.9723 10.0914C19.336 5.69733 16.0762 1.9406 11.999 2.00071ZM14.3782 9.48319C14.3688 10.8399 13.248 12.0266 11.9878 12.0144C10.7168 12.0021 9.61272 10.8114 9.61766 9.45863C9.62259 8.10731 10.7435 6.92206 12.0109 6.9283C13.2759 6.93443 14.3875 8.13425 14.3782 9.48313V9.48319Z" fill="#007DFD"/>
</g>
<defs>
<clipPath id="clip0_13_1459">
<rect width="14" height="21" fill="white" transform="translate(5 2)"/>
</clipPath>
</defs>
</svg>
