<svg width="24" height="25" viewBox="0 0 24 25" fill="none" xmlns="http://www.w3.org/2000/svg">
<mask id="mask0_563_541" style="mask-type:alpha" maskUnits="userSpaceOnUse" x="0" y="0" width="24" height="25">
<rect y="0.5" width="24" height="24" fill="#D9D9D9"/>
</mask>
<g mask="url(#mask0_563_541)">
<path d="M7.07399 13.5997C7.68874 13.5997 8.25234 13.7663 8.76478 14.0993C9.27707 14.4323 9.65424 14.8849 9.89629 15.4572L10.1905 16.1506H10.9428C11.4399 16.1506 11.8569 16.3269 12.1938 16.6795C12.5305 17.032 12.6988 17.4553 12.6988 17.9492C12.6988 18.4517 12.5247 18.8771 12.1765 19.2254C11.8282 19.5736 11.4028 19.7477 10.9003 19.7477H7.07399C6.22583 19.7477 5.50146 19.4474 4.90088 18.8468C4.30029 18.2463 4 17.5219 4 16.6737C4 15.8114 4.30029 15.0835 4.90088 14.49C5.50146 13.8965 6.22583 13.5997 7.07399 13.5997ZM11.0557 4.5C10.8986 5.86485 11.0392 7.18824 11.4774 8.47019C11.9157 9.75213 12.6216 10.8798 13.595 11.8533C14.5685 12.8267 15.6961 13.5326 16.9781 13.9709C18.26 14.4091 19.5834 14.5496 20.9483 14.3926C20.509 16.1761 19.5756 17.6306 18.1481 18.7561C16.7206 19.8816 15.0944 20.4629 13.2696 20.5C13.6304 20.1697 13.9089 19.7841 14.1052 19.3432C14.3013 18.9022 14.3994 18.4375 14.3994 17.9492C14.3994 17.0401 14.1051 16.2579 13.5166 15.6028C12.9279 14.9476 12.1931 14.5792 11.3122 14.4974C10.9024 13.7006 10.3192 13.0683 9.56277 12.6007C8.80616 12.133 7.97656 11.8992 7.07399 11.8992C6.70227 11.8992 6.33708 11.9422 5.9784 12.0282C5.61986 12.1144 5.27649 12.2435 4.94828 12.4157V12.285C4.96571 10.4318 5.53993 8.78437 6.67095 7.34271C7.80197 5.90105 9.26354 4.95348 11.0557 4.5Z" fill="#6D6D6D"/>
</g>
</svg>
