<svg width="87" height="60" viewBox="0 0 87 60" fill="none" xmlns="http://www.w3.org/2000/svg">
<mask id="mask0_2413_22" style="mask-type:alpha" maskUnits="userSpaceOnUse" x="20" y="20" width="20" height="20">
<path d="M40 20H20V40H40V20Z" fill="#D9D9D9"/>
</mask>
<g mask="url(#mask0_2413_22)">
<mask id="mask1_2413_22" style="mask-type:luminance" maskUnits="userSpaceOnUse" x="20" y="24" width="19" height="13">
<path d="M38.0952 24.0479H20.9524V36.4289H38.0952V24.0479Z" fill="white"/>
</mask>
<g mask="url(#mask1_2413_22)">
<path d="M27.1905 36.4289L21.762 31.0004L23.1191 29.6432L27.1905 33.7147L35.9286 24.9766L37.2858 26.3337L27.1905 36.4289Z" fill="#177FBB"/>
</g>
</g>
<mask id="mask2_2413_22" style="mask-type:alpha" maskUnits="userSpaceOnUse" x="49" y="20" width="20" height="20">
<path d="M69 20H49V40H69V20Z" fill="#D9D9D9"/>
</mask>
<g mask="url(#mask2_2413_22)">
</g>
<g clip-path="url(#clip0_2413_22)">
<path d="M66.0952 20.9521H49.9048C49.3788 20.9521 48.9524 21.3785 48.9524 21.9045V38.095C48.9524 38.621 49.3788 39.0474 49.9048 39.0474H66.0952C66.6212 39.0474 67.0476 38.621 67.0476 38.095V21.9045C67.0476 21.3785 66.6212 20.9521 66.0952 20.9521Z" fill="white" stroke="#173348" stroke-width="2"/>
</g>
<defs>
<clipPath id="clip0_2413_22">
<rect width="20" height="20" fill="white" transform="translate(48 20)"/>
</clipPath>
</defs>
</svg>
