<svg width="24" height="25" viewBox="0 0 24 25" fill="none" xmlns="http://www.w3.org/2000/svg">
<path d="M17.0877 18.017C19.7877 15.1995 19.6925 10.7268 16.875 8.02679C14.0575 5.3268 9.58472 5.42206 6.88474 8.23951C4.26572 10.9725 4.26572 15.284 6.88474 18.017L5.04891 20.4644C4.83607 20.7482 4.89358 21.1508 5.17736 21.3636C5.46115 21.5765 5.86379 21.519 6.07663 21.2352L7.85593 18.8624C10.3174 20.6558 13.655 20.6558 16.1164 18.8624L17.8957 21.2352C18.1086 21.519 18.5112 21.5765 18.795 21.3636C19.0788 21.1508 19.1363 20.7481 18.9235 20.4644L17.0877 18.017ZM12.6286 13.1417C12.6286 13.2806 12.5835 13.4159 12.5001 13.5271L10.5731 16.0964C10.3603 16.3803 9.95763 16.4378 9.67385 16.2249C9.39007 16.012 9.33252 15.6094 9.54539 15.3256L11.344 12.9278V9.2876C11.344 8.93283 11.6316 8.64524 11.9863 8.64524C12.3411 8.64524 12.6287 8.93283 12.6287 9.2876V13.1417H12.6286Z" fill="#6D6D6D"/>
<path d="M8.47542 4.4474C7.20547 3.20906 5.17211 3.23469 3.93374 4.50465C2.71753 5.75191 2.71738 7.74134 3.93344 8.98879C4.18429 9.23957 4.59088 9.23957 4.8417 8.98879L8.47542 5.3557C8.7262 5.10485 8.7262 4.69825 8.47542 4.4474Z" fill="#6D6D6D"/>
<path d="M20.038 4.44719C18.7838 3.19338 16.7508 3.19338 15.4967 4.44719C15.2459 4.69805 15.2459 5.10464 15.4967 5.35546L19.1298 8.98854C19.3806 9.23932 19.7872 9.23932 20.038 8.98854C21.2918 7.73439 21.2918 5.70138 20.038 4.44719Z" fill="#6D6D6D"/>
</svg>
