<?xml version="1.0" encoding="utf-8"?>
<!-- Generator: Adobe Illustrator 28.1.0, SVG Export Plug-In . SVG Version: 6.00 Build 0)  -->
<svg version="1.1" id="레이어_1" xmlns="http://www.w3.org/2000/svg" xmlns:xlink="http://www.w3.org/1999/xlink" x="0px"
	 y="0px" viewBox="0 0 130.2 78" style="enable-background:new 0 0 130.2 78;" xml:space="preserve">
<style type="text/css">
	.st0{fill:#FFFFFF;}
</style>
<g>
	<g>
		<g>
			<g>
				<path class="st0" d="M68.4,11.3c0,1.8-1.5,3.3-3.3,3.3l0,0c-1.8,0-3.3-1.5-3.3-3.3V3.3c0-1.8,1.5-3.3,3.3-3.3l0,0
					c1.8,0,3.3,1.5,3.3,3.3V11.3z"/>
			</g>
			<g>
				<path class="st0" d="M48.7,12.8c0.8,1.6,0,3.6-1.6,4.3l0,0c-1.6,0.8-3.6,0.1-4.3-1.6l-3.4-7.3c-0.8-1.6,0-3.6,1.6-4.3l0,0
					c1.6-0.8,3.6,0,4.3,1.6L48.7,12.8z"/>
			</g>
			<g>
				<path class="st0" d="M31.1,20.5c1.4,1.2,1.5,3.3,0.3,4.6l0,0c-1.2,1.4-3.3,1.5-4.6,0.3l-6.1-5.3c-1.4-1.2-1.5-3.3-0.3-4.6l0,0
					c1.2-1.4,3.3-1.5,4.6-0.3L31.1,20.5z"/>
			</g>
		</g>
		<g>
			<g>
				<path class="st0" d="M81.5,12.8c-0.8,1.6-0.1,3.6,1.6,4.3l0,0c1.6,0.8,3.6,0.1,4.3-1.6l3.4-7.3c0.8-1.6,0-3.6-1.6-4.3l0,0
					c-1.6-0.8-3.6,0-4.3,1.6L81.5,12.8z"/>
			</g>
			<g>
				<path class="st0" d="M99.1,20.5c-1.4,1.2-1.5,3.3-0.3,4.6l0,0c1.2,1.4,3.3,1.5,4.6,0.3l6.1-5.3c1.4-1.2,1.5-3.3,0.3-4.6l0,0
					c-1.2-1.4-3.3-1.5-4.6-0.3L99.1,20.5z"/>
			</g>
		</g>
	</g>
	<g>
		<g>
			<g>
				<path class="st0" d="M65.1,26.5c-7.6,0-13.8,6.2-13.8,13.8c0,7.6,6.2,13.8,13.8,13.8c7.6,0,13.8-6.2,13.8-13.8
					C78.9,32.7,72.7,26.5,65.1,26.5z M65.1,45.9c-3.1,0-5.6-2.5-5.6-5.6c0-3.1,2.5-5.6,5.6-5.6c3.1,0,5.6,2.5,5.6,5.6
					C70.7,43.4,68.2,45.9,65.1,45.9z"/>
			</g>
			<g>
				<path class="st0" d="M101.6,37.9c-0.1-0.3-0.2-0.6-0.4-0.8c-0.5-0.6-1-1.1-1.5-1.6c-8.4-8.8-20.8-14.4-34.6-14.4l0,0
					c0,0,0,0,0,0c0,0,0,0,0,0l0,0c-13.8,0-26.2,5.6-34.6,14.4c-0.5,0.5-1,1.1-1.5,1.6c-0.1,0.2-0.3,0.5-0.4,0.8
					c-0.1,0.4-0.2,0.7-0.2,1.1c0,2.3,1.9,4.2,4.2,4.2c0.7,0,1.4-0.2,1.9-0.5c0.2-0.1,0.4-0.3,0.7-0.5c0.3-0.4,0.7-0.8,1-1.2
					c6.9-7.5,17.3-12.3,28.9-12.3c11.6,0,22,4.8,28.9,12.3c0.4,0.4,0.7,0.8,1,1.2c0.2,0.2,0.5,0.4,0.7,0.5c0.6,0.3,1.2,0.5,1.9,0.5
					c2.3,0,4.2-1.9,4.2-4.2C101.8,38.6,101.7,38.3,101.6,37.9z"/>
			</g>
		</g>
	</g>
</g>
<g>
	<g>
		<g>
			<path class="st0" d="M20.6,67c0.4,0.4,0.9,0.7,1.5,0.9c0.6,0.2,1.2,0.3,1.9,0.3c0.7,0,1.3-0.1,1.9-0.3c0.6-0.2,1.1-0.5,1.5-0.9
				c0.4-0.4,0.7-0.8,1-1.4c0.3-0.5,0.4-1.1,0.4-1.7c0-0.6-0.1-1.2-0.4-1.7c-0.3-0.5-0.6-1-1-1.4c-0.4-0.4-0.9-0.7-1.5-0.9
				c-0.6-0.2-1.2-0.3-1.9-0.3c-0.7,0-1.3,0.1-1.9,0.3c-0.6,0.2-1.1,0.5-1.5,0.9c-0.4,0.4-0.8,0.9-1,1.4c-0.3,0.5-0.4,1.1-0.4,1.7
				c0,0.6,0.1,1.2,0.4,1.7C19.8,66.1,20.2,66.6,20.6,67z M22.5,62.5c0.4-0.4,0.9-0.6,1.5-0.6c0.6,0,1.1,0.2,1.5,0.6
				c0.4,0.4,0.6,0.9,0.6,1.4c0,0.6-0.2,1-0.6,1.4c-0.4,0.4-0.9,0.6-1.5,0.6c-0.6,0-1.1-0.2-1.5-0.6c-0.4-0.4-0.6-0.9-0.6-1.4
				C21.9,63.3,22.1,62.8,22.5,62.5z"/>
		</g>
		<g>
			<rect x="17" y="69.2" class="st0" width="14" height="2.4"/>
		</g>
		<g>
			<polygon class="st0" points="21.7,72.4 19,72.4 19,78 29.5,78 29.5,75.7 21.7,75.7 			"/>
		</g>
	</g>
	<g>
		<g>
			<path class="st0" d="M45.3,71.2c-0.4-0.3-0.8-0.6-1.4-0.8c-0.5-0.2-1.1-0.3-1.7-0.3c-0.6,0-1.1,0.1-1.6,0.3
				c-0.5,0.2-1,0.5-1.3,0.8c-0.4,0.4-0.7,0.8-0.9,1.3c-0.2,0.5-0.3,1-0.3,1.5c0,0.6,0.1,1.1,0.3,1.5c0.2,0.5,0.5,0.9,0.9,1.2
				c0.4,0.4,0.8,0.6,1.3,0.8c0.5,0.2,1.1,0.3,1.6,0.3c0.6,0,1.1-0.1,1.7-0.3c0.5-0.2,1-0.5,1.4-0.8c0.4-0.3,0.7-0.8,0.9-1.2
				c0.2-0.5,0.3-1,0.3-1.5c0-0.5-0.1-1-0.3-1.5C46,72,45.7,71.6,45.3,71.2z M43.5,75.1c-0.3,0.3-0.7,0.5-1.2,0.5
				c-0.5,0-0.9-0.2-1.2-0.5c-0.3-0.3-0.5-0.7-0.5-1.1c0-0.4,0.2-0.8,0.5-1.1c0.3-0.3,0.7-0.5,1.2-0.5c0.5,0,0.9,0.2,1.2,0.5
				c0.3,0.3,0.5,0.7,0.5,1.1C44,74.5,43.8,74.8,43.5,75.1z"/>
		</g>
		<g>
			<polygon class="st0" points="42.1,67.9 38.3,61.8 38.3,59.5 35.7,59.5 35.7,61.8 31.9,67.9 34.1,69.5 37,64.4 39.9,69.5 			"/>
		</g>
		<g>
			<polygon class="st0" points="44.2,62.9 40.9,62.9 40.9,65.4 44.2,65.4 44.2,69.8 47,69.8 47,59.5 44.2,59.5 			"/>
		</g>
	</g>
	<g>
		<path class="st0" d="M57.2,67.8h4v-8.3H50.5v8.3h4v2h-5.6v2.5h14v-2.5h-5.6V67.8z M53.2,65.3V62h5.4v3.4H53.2z"/>
	</g>
	<g>
		<g>
			<path class="st0" d="M70.8,68.6c0.6-0.2,1.1-0.6,1.5-1c0.4-0.4,0.7-0.9,1-1.5c0.2-0.6,0.4-1.2,0.4-1.8c0-0.7-0.1-1.3-0.4-1.9
				c-0.2-0.6-0.6-1.1-1-1.5c-0.4-0.4-0.9-0.8-1.5-1c-0.6-0.2-1.2-0.4-1.8-0.4c-0.6,0-1.2,0.1-1.8,0.4c-0.6,0.2-1,0.6-1.4,1
				c-0.4,0.4-0.8,0.9-1,1.5c-0.2,0.6-0.4,1.2-0.4,1.9c0,0.7,0.1,1.3,0.4,1.8c0.2,0.6,0.6,1.1,1,1.5c0.4,0.4,0.9,0.8,1.4,1
				c0.6,0.2,1.2,0.4,1.8,0.4C69.7,68.9,70.3,68.8,70.8,68.6z M67.6,66c-0.2-0.2-0.3-0.5-0.5-0.7c-0.1-0.3-0.2-0.6-0.2-0.9
				c0-0.7,0.2-1.2,0.6-1.7C68,62.2,68.4,62,69,62c0.6,0,1.1,0.2,1.5,0.7c0.4,0.4,0.6,1,0.6,1.7c0,0.3-0.1,0.6-0.2,0.9
				c-0.1,0.3-0.3,0.5-0.4,0.7c-0.2,0.2-0.4,0.4-0.7,0.5c-0.3,0.1-0.5,0.2-0.8,0.2c-0.3,0-0.5-0.1-0.8-0.2C68,66.4,67.8,66.2,67.6,66
				z"/>
		</g>
		<g>
			<polygon class="st0" points="78.2,59.5 75.4,59.5 75.4,71 78.2,71 78.2,66.3 80.8,66.3 80.8,63.7 78.2,63.7 			"/>
		</g>
		<g>
			<polygon class="st0" points="71,70.7 68.3,70.7 68.3,76.8 77.9,76.8 77.9,74.4 71,74.4 			"/>
		</g>
	</g>
	<g>
		<g>
			<rect x="110.9" y="59.5" class="st0" width="2.7" height="15.8"/>
		</g>
		<g>
			<path class="st0" d="M101.1,67.2c0.4,0.4,0.9,0.7,1.4,1c0.6,0.2,1.1,0.4,1.8,0.4c0.6,0,1.2-0.1,1.8-0.4c0.5-0.2,1-0.6,1.4-1
				c0.4-0.4,0.7-0.9,1-1.4c0.2-0.5,0.4-1.1,0.4-1.8c0-0.6-0.1-1.2-0.4-1.8c-0.2-0.5-0.6-1-1-1.4c-0.4-0.4-0.9-0.7-1.4-1
				c-0.5-0.2-1.1-0.4-1.8-0.4c-0.6,0-1.2,0.1-1.8,0.4c-0.6,0.2-1,0.6-1.4,1c-0.4,0.4-0.8,0.9-1,1.4c-0.2,0.5-0.4,1.1-0.4,1.8
				c0,0.6,0.1,1.2,0.4,1.8C100.4,66.3,100.7,66.8,101.1,67.2z M103,62.6c0.4-0.4,0.8-0.6,1.4-0.6c0.3,0,0.5,0.1,0.7,0.2
				c0.2,0.1,0.4,0.2,0.6,0.4c0.2,0.2,0.3,0.4,0.4,0.7c0.1,0.2,0.2,0.5,0.2,0.8c0,0.3-0.1,0.5-0.2,0.8c-0.1,0.2-0.2,0.5-0.4,0.6
				c-0.2,0.2-0.4,0.3-0.6,0.4c-0.2,0.1-0.5,0.1-0.7,0.1c-0.5,0-1-0.2-1.4-0.6c-0.4-0.4-0.6-0.9-0.6-1.4
				C102.4,63.4,102.6,62.9,103,62.6z"/>
		</g>
		<g>
			<rect x="99.3" y="70.1" class="st0" width="10.9" height="2.4"/>
		</g>
	</g>
	<g>
		<g>
			<polygon class="st0" points="122.3,72.2 122.3,69.8 126.5,69.8 126.5,67.6 115.9,67.6 115.9,69.8 119.6,69.8 119.6,72.2 			"/>
		</g>
		<g>
			<path class="st0" d="M118.1,66.1c0.4,0.4,0.8,0.6,1.3,0.8c0.5,0.2,1.1,0.3,1.7,0.3c0.6,0,1.2-0.1,1.7-0.3c0.5-0.2,1-0.5,1.4-0.8
				c0.4-0.3,0.7-0.8,0.9-1.2c0.2-0.5,0.3-1,0.3-1.5c0-0.6-0.1-1.1-0.3-1.5c-0.2-0.5-0.5-0.9-0.9-1.2c-0.4-0.4-0.9-0.6-1.4-0.8
				c-0.5-0.2-1.1-0.3-1.7-0.3c-0.6,0-1.1,0.1-1.7,0.3c-0.5,0.2-1,0.5-1.3,0.8c-0.4,0.3-0.7,0.8-0.9,1.2c-0.2,0.5-0.3,1-0.3,1.5
				c0,0.5,0.1,1,0.3,1.5C117.4,65.4,117.7,65.8,118.1,66.1z M119.8,62.2c0.3-0.3,0.7-0.4,1.3-0.4c0.5,0,0.9,0.1,1.3,0.4
				c0.3,0.3,0.5,0.7,0.5,1.2c0,0.5-0.2,0.8-0.5,1.1c-0.3,0.3-0.8,0.4-1.3,0.4c-0.5,0-0.9-0.1-1.3-0.4c-0.3-0.3-0.5-0.7-0.5-1.1
				C119.3,62.9,119.5,62.5,119.8,62.2z"/>
		</g>
		<g>
			<polygon class="st0" points="122.8,72.6 120.1,72.6 120.1,77.8 129.7,77.8 129.7,75.4 122.8,75.4 			"/>
		</g>
		<g>
			<polygon class="st0" points="127.4,70.1 125.1,70.1 125.1,72.4 130.2,72.4 130.2,60 127.4,60 			"/>
		</g>
	</g>
	<g>
		<g>
			<polygon class="st0" points="95.4,59.5 92.7,59.5 92.7,75.3 95.4,75.3 95.4,67.8 98.1,67.8 98.1,65.3 95.4,65.3 			"/>
		</g>
		<g>
			<polygon class="st0" points="87.1,65.8 84.3,65.8 84.3,71.1 82,71.1 82,73.6 92.1,73.6 92.1,71.1 87.1,71.1 			"/>
		</g>
		<g>
			<polygon class="st0" points="88.5,69.8 91.2,69.8 91.2,59.9 82.6,59.9 82.6,62.4 88.5,62.4 			"/>
		</g>
	</g>
	<g>
		<g>
			<path class="st0" d="M6,62.7H2.6v-3.3H0v9.4h8.6v-9.4H6V62.7z M6,66.5H2.6V65H6V66.5z"/>
		</g>
		<g>
			<polygon class="st0" points="13.6,59.5 10.8,59.5 10.8,68.6 13.6,68.6 13.6,65.8 16.3,65.8 16.3,63.2 13.6,63.2 			"/>
		</g>
		<g>
			<polygon class="st0" points="3.7,71.7 5.8,71.7 5.8,73 3.7,73 3.7,77.8 8.3,77.8 8.3,75.9 6.1,75.9 6.1,74.6 8.3,74.6 8.3,69.7 
				3.7,69.7 			"/>
		</g>
		<g>
			<polygon class="st0" points="9,72.1 10.5,72.1 10.5,77.8 13.1,77.8 13.1,69.7 9,69.7 			"/>
		</g>
	</g>
</g>
</svg>
