<svg width="68" height="40" viewBox="0 0 68 40" fill="none" xmlns="http://www.w3.org/2000/svg">
<path fill-rule="evenodd" clip-rule="evenodd" d="M36.1204 8.45878C36.1204 9.7491 34.9734 10.8961 33.6831 10.8961C32.3928 10.8961 31.2458 9.7491 31.2458 8.45878V2.43728C31.2458 1.14695 32.3928 0 33.6831 0C34.9734 0 36.1204 1.14695 36.1204 2.43728V8.45878ZM21.6403 9.46228C22.2138 10.6092 21.6403 12.1863 20.4934 12.6164C19.3464 13.1899 17.7694 12.6164 17.3393 11.4694L14.7586 6.02142C14.1851 4.87446 14.7586 3.2974 15.9056 2.8673C17.0525 2.29382 18.6296 2.8673 19.0597 4.01425L21.6403 9.46228ZM8.73688 18.638C9.59709 17.6344 9.45372 16.0573 8.45014 15.1971L4.00569 11.1828C3.00211 10.3225 1.42505 10.4659 0.564833 11.4695C-0.295382 12.4731 -0.152012 14.0501 0.851572 14.9104L5.29602 18.9247C6.2996 19.7849 7.87666 19.6415 8.73688 18.638ZM45.8692 9.46224C45.2957 10.6092 45.8692 12.1863 47.0161 12.6164C48.1631 13.1898 49.7402 12.6164 50.1703 11.4694L52.7509 6.02138C53.3244 4.87443 52.7509 3.29737 51.604 2.86726C50.457 2.29379 48.8799 2.86726 48.4498 4.01422L45.8692 9.46224ZM58.6293 18.638C57.7691 17.6344 57.9125 16.0573 58.9161 15.1971L63.5039 11.1828C64.5075 10.3225 65.9412 10.4659 66.8014 11.4695C67.6616 12.4731 67.5182 14.0501 66.5147 14.9104L62.0702 18.9247C61.0666 19.7849 59.4896 19.6415 58.6293 18.638ZM27.0899 22.086C24.8998 23.958 23.5041 26.7367 23.5041 29.8208C23.5041 35.4122 28.0919 40 33.6833 40C39.2747 40 43.8625 35.4122 43.8625 29.8208C43.9412 26.7509 42.5937 23.9835 40.4133 22.1118C46.2599 23.4393 51.3794 26.4528 55.0452 30.5375L55.0452 30.5376C55.332 30.8243 55.6187 31.111 55.762 31.3978C55.9054 31.5411 56.0488 31.6845 56.3355 31.8279C56.7656 32.1146 57.1957 32.1146 57.7692 32.1146C59.4896 32.1146 60.9233 30.6809 60.9233 28.9605C60.9233 28.6737 60.9233 28.387 60.78 28.1003C60.7252 27.9907 60.6914 27.9021 60.6625 27.8265C60.6157 27.704 60.5818 27.6154 60.4932 27.5268C60.2782 27.3117 60.099 27.0967 59.9198 26.8816C59.7405 26.6666 59.5613 26.4515 59.3463 26.2365C53.038 19.6415 43.8624 15.6271 33.6832 15.6271C23.504 15.6271 14.185 19.7849 8.02011 26.2365C7.80506 26.4515 7.62584 26.6666 7.44663 26.8816C7.26742 27.0967 7.08821 27.3117 6.87316 27.5268C6.80147 27.5985 6.76563 27.706 6.72979 27.8135C6.69394 27.9211 6.6581 28.0286 6.58642 28.1003C6.44305 28.387 6.44305 28.6737 6.44305 28.9605C6.44305 30.6809 7.87674 32.1146 9.59717 32.1146C10.1706 32.1146 10.6008 31.9712 11.0309 31.8279C11.1742 31.6845 11.3176 31.5411 11.6043 31.3978C11.8911 31.111 12.1778 30.8243 12.3212 30.5375C16.1163 26.4262 21.2292 23.4 27.0899 22.086ZM33.6833 34.1218C31.3894 34.1218 29.5256 32.258 29.5256 29.9641C29.5256 27.6702 31.3894 25.8064 33.6833 25.8064C35.9772 25.8064 37.841 27.6702 37.841 29.9641C37.841 32.258 35.9772 34.1218 33.6833 34.1218Z" fill="white"/>
</svg>
