<?xml version="1.0" encoding="UTF-8"?>
<svg id="_레이어_2" data-name="레이어 2" xmlns="http://www.w3.org/2000/svg" viewBox="0 0 360 70">
  <defs>
    <style>
      .cls-1 {
        fill: none;
      }

      .cls-1, .cls-2, .cls-3, .cls-4 {
        stroke-width: 0px;
      }

      .cls-2 {
        fill: #fff;
      }

      .cls-3 {
        fill: #5e5552;
      }

      .cls-4 {
        fill: #00388d;
      }
    </style>
  </defs>
  <g id="_레이어_1-2" data-name="레이어 1">
    <g>
      <rect class="cls-1" width="360" height="70"/>
      <g id="logo">
        <path id="_패스_274" data-name="패스 274" class="cls-3" d="M248.11,24.23c.72-1.54,1.05-3.23.96-4.92v-9.47h-11.81v1.64h8.98v6.66c0,2.45-.05,4.94-.69,6.09h-.48v-7.67h-3.07l.07.07c.27.4.39.89.33,1.37v6.23h-1.33v-7.67h-3.05l.06.09c.24.41.35.88.33,1.36v6.23h-2.29v1.62h14.49v-1.62h-2.48Z"/>
        <path id="_패스_275" data-name="패스 275" class="cls-3" d="M216.53,9.01h-2.61l.11.08c.4.33.61.85.54,1.37v3.14h-1.26v-4.02c0-.39-.2-.57-.62-.57h-2.67l.12.08c.41.33.62.84.56,1.36v7.42c-.6.24-1.24.35-1.88.34h-3.36v-6.91h4.04v-1.64h-7.57l.09.08c.39.42.58.98.53,1.55v6.74c-.08.92.61,1.73,1.53,1.81.09,0,.18,0,.27,0h4.38c.7.03,1.39-.17,1.97-.55v6.55h2.61v-10.63h1.26v10.63h2.58V9.58c0-.39-.2-.57-.62-.57"/>
        <path id="_패스_276" data-name="패스 276" class="cls-3" d="M232.82,12.46v-2.9c0-.39-.2-.57-.62-.57h-2.97l.13.09c.43.31.66.83.61,1.36v9.39h-8.93v1.62h8.69c.16,0,.22.09.22.34v4.06h2.87v-11.75h2.57v-1.64h-2.57ZM228.5,14.87c-.01-1.01-.46-1.96-1.23-2.62h1.42v-1.58h-3.15v-1.82h-3.19l-.02.08s.37.21.37,1.05v.69h-3.15v1.58h1.43c-.76.66-1.21,1.61-1.23,2.62,0,2.08,1.96,3.78,4.38,3.78s4.38-1.7,4.38-3.78M222.3,14.87c-.22-1.01.42-2,1.42-2.22,1.01-.22,2,.42,2.22,1.42.06.26.06.53,0,.8.22,1.01-.42,2-1.42,2.22-1.01.22-2-.42-2.22-1.42-.06-.26-.06-.53,0-.8"/>
        <path id="_패스_277" data-name="패스 277" class="cls-3" d="M178.59,16.79v-1.11h4.35v-1.58h-8.64v-.9h8.64v-1.61h-8.64v-.94h8.64v-1.58h-12.18l.1.07c.42.4.64.97.57,1.54v3.21c.04,1.03.91,1.84,1.94,1.8.03,0,.06,0,.09,0h2.26v1.11h-6.03v1.58h15.02v-1.58h-6.12ZM174.64,23.29h7c.89,0,1.32-.49,1.32-1.5v-1.98c0-.39-.2-.57-.62-.57h-10.73v1.62h8.48v.9h-8.86l-.02.08s.56.21.56,1.33v.83c.05,1.07.95,1.89,2.02,1.85,0,0,.02,0,.03,0h9.18v-1.6h-8.35v-.95Z"/>
        <path id="_패스_278" data-name="패스 278" class="cls-3" d="M198.95,9.01h-3.02l.13.08c.44.31.68.83.64,1.36v5.81c-.84.3-1.73.45-2.62.43h-4.92v-2h4.17c.89,0,1.32-.49,1.32-1.5v-3.21c0-.39-.2-.56-.62-.56h-7.9v1.6h5.87v2.07h-6.29l.08.08c.37.42.55.97.5,1.52v1.78c-.08.93.61,1.74,1.54,1.81.09,0,.18,0,.27,0h5.83c.96.02,1.92-.21,2.77-.67v2.21h-9.13v1.62h8.91c.15,0,.21.09.21.34v4.06h2.87V9.58c0-.38-.2-.57-.62-.57"/>
        <path id="_패스_279" data-name="패스 279" class="cls-3" d="M166.35,12.86v-3.19c0-.54-.34-.66-.62-.66h-2.93l.12.08c.41.33.62.84.56,1.36v15.39h2.87v-11.37h2.57v-1.62h-2.57ZM153.22,11.21h4.93v.31c0,3.89-1.79,6.51-4.9,7.22h-.03v1.61h.04c4.01-.19,8.06-3.35,8.06-9.04v-1.71h-8.1v1.62Z"/>
        <path id="_패스_280" data-name="패스 280" class="cls-3" d="M171.94,34.22h-4.95l.22.14c.72.5,1.12,1.35,1.04,2.22v5.18h-5.14v2.64h5.14v17.76h4.7v-27.01c0-.63-.32-.93-1.01-.93M159.36,39.41v-4.54h-6.15l.23.15c.72.42,1.16,1.21,1.12,2.05v2.35c0,4.25-2.69,9.3-5.95,10.95l-.11.03,2.73,2.19h.04c2.45-1.63,4.41-3.89,5.67-6.55,1.32,2.63,3.29,4.88,5.72,6.54h.03s2.62-2.21,2.62-2.21c-3.32-1.8-5.96-6.7-5.96-10.95M175.88,49.37h10.28v1.31h-6.95v2.67h14.33v1.5h-14.96l-.02.13s.93.34.93,2.2v1.37c.08,1.77,1.58,3.14,3.35,3.06.02,0,.04,0,.05,0h15.91v-2.65h-14.57v-1.59h11.88c1.47,0,2.18-.82,2.18-2.49v-3.26c0-.65-.32-.94-1.02-.94h-6.35v-1.31h10.27v-2.61h-25.3v2.61ZM188.55,45.88c4.96,0,8.85-2.69,8.85-6.12s-3.97-6.13-8.85-6.13-8.89,2.75-8.89,6.13,3.91,6.12,8.89,6.12M188.55,36.34c1.89-.1,3.49,1.35,3.59,3.24.1,1.89-1.35,3.49-3.24,3.59-.12,0-.23,0-.35,0-1.89.1-3.49-1.35-3.59-3.24-.1-1.89,1.35-3.49,3.24-3.59.12,0,.23,0,.35,0M291.06,45.33c3.98,0,7.1-2.5,7.1-5.7s-3.19-5.7-7.1-5.7-7.13,2.55-7.13,5.7,3.12,5.7,7.13,5.7M291.06,36.45c1.62.11,2.85,1.52,2.74,3.14,0,0,0,.02,0,.03.13,1.63-1.08,3.05-2.71,3.18,0,0-.02,0-.03,0-1.61-.09-2.84-1.47-2.75-3.08,0-.03,0-.07,0-.1-.15-1.6,1.03-3.02,2.63-3.17.04,0,.07,0,.11,0M277.84,34.59h-4.95l.22.14c.72.5,1.12,1.35,1.05,2.23v1.36h-3.47v-2.83h-5.9l.2.11.09.05c.74.37,1.18,1.16,1.08,1.99v1.95h-4.71v-4.1h-5.55v.14c.37.14.98.59.98,2.01v8.43c-.1,1.55,1.07,2.9,2.63,3,.13,0,.26,0,.39,0h10.79v-2.2h3.47v3.64c-1.33-.53-2.74-.8-4.17-.8-4.86,0-8.8,3.05-8.8,6.78s3.94,6.78,8.8,6.78,8.87-3.05,8.87-6.78v-.23h0v-20.75c0-.63-.32-.93-1.01-.93M266.15,46.41h-4.71v-4.15h4.71v4.15ZM269.93,60.67c-2.29-.03-4.12-1.91-4.09-4.2.03-2.29,1.91-4.12,4.2-4.09,2.27.03,4.09,1.88,4.09,4.15,0,2.29-1.85,4.14-4.13,4.15-.02,0-.04,0-.07,0M274.16,44.25h-3.47v-3.31h3.47v3.31ZM304.75,34.52h-4.72l.17.12c.6.62.92,1.46.86,2.32v13.65h-5.66v2.33h5.66v6.54h-8.93v-4.94h-5.19l.07.12c.32.7.47,1.47.43,2.24v2.24c-.1,1.57,1.1,2.92,2.67,3.02.11,0,.22,0,.33,0h15.31v-1.57h0v-25.14c0-.63-.32-.93-1.01-.93M294.04,48.66h5.77v-2.52h-16.85v2.52h5.75c-.05.93-1.2,2.03-3.68,2.3h-.06v2.54h.07c4.32,0,8-1.99,8.98-4.84M211.23,44.19c1.65,2.28,3.99,3.98,6.68,4.84h.04s2.36-2.19,2.36-2.19l-.1-.04c-3.76-1.54-6.6-5.39-6.6-8.96v-2.83h-6.08l.23.13c.71.41,1.13,1.19,1.1,2.01v.69c0,3.57-3.21,7.97-6.61,9.07l-.11.03,2.37,2.21h.03c1.95-.42,5.68-3.01,6.69-4.95M225.25,34.6h-4.95l.22.14c.72.5,1.12,1.35,1.05,2.23v2.48h-5.14v2.65h5.14v8.41c-1.33-.53-2.75-.81-4.18-.8-4.85,0-8.79,3.05-8.79,6.78s3.94,6.78,8.79,6.78,8.87-3.05,8.87-6.78c0-.07,0-.13,0-.19h0v-20.78c0-.63-.32-.93-1.01-.93M217.34,60.66c-2.29-.06-4.1-1.97-4.04-4.26.06-2.22,1.86-4,4.08-4.04,2.26-.03,4.12,1.79,4.15,4.05,0,.03,0,.06,0,.09-.01,2.3-1.89,4.16-4.19,4.15M244.54,50.52h7.12v-14.74h-20.16l-.03.12.06.03c.83.46,1.3,1.37,1.2,2.31v9.26c-.1,1.57,1.09,2.93,2.67,3.03.13,0,.26,0,.39,0h4.05v7.86h-9.43v2.65h23.56v-2.65h-9.43v-7.87ZM237.43,38.46h9.54v9.44h-9.54v-9.44Z"/>
        <path id="_패스_281" data-name="패스 281" class="cls-2" d="M134.27,13.87c-.29-.43-.69-.78-1.16-1.01-24.62-10.09-52.22-10.09-76.83,0-.47.23-.86.58-1.16,1.01-.35.7-.51,1.48-.48,2.26v37.73c-.03.78.13,1.56.48,2.26.27.4.64.73,1.07.97,12.21,5.03,25.29,7.62,38.5,7.61,13.21.01,26.29-2.57,38.5-7.61.43-.23.8-.56,1.07-.97.34-.7.51-1.48.48-2.26V16.13c.03-.78-.13-1.56-.48-2.26"/>
        <path id="_패스_282" data-name="패스 282" class="cls-4" d="M131.72,14.44c-23.77-9.49-50.27-9.49-74.04,0-.74.36-1.09.69-1.09,1.52v38.09c0,.83.36,1.16,1.09,1.52,11.77,4.72,24.34,7.14,37.02,7.12,12.68.02,25.25-2.4,37.02-7.12.73-.36,1.09-.69,1.09-1.52V15.96c0-.83-.36-1.16-1.09-1.52M120.6,15.05c.23-1.2,1.39-1.99,2.6-1.75.06.01.12.03.18.04.32.08.61.23.86.45v.02s-.22.67-.22.67l-.04-.04c-.19-.23-.45-.39-.74-.47-.38-.11-.79-.07-1.13.13-.42.26-.73.68-.84,1.16-.15.47-.11.99.13,1.43.19.33.5.58.87.68.3.08.61.09.91.03l.05-.02-.15.69h-.02c-.32.04-.65,0-.96-.09-1.17-.3-1.87-1.48-1.58-2.65.02-.09.05-.19.09-.28M115.23,11.49v-.03l.64.13-.92,4.57-.64-.13.92-4.54ZM107.66,10.28v-.03l.65.08-.53,3.98,1.72.23-.08.64-2.36-.31.61-4.59ZM98.04,11.82c0-.69.28-1.35.77-1.83.38-.34.87-.51,1.38-.47,1.17.11,2.03,1.14,1.92,2.31,0,.07-.02.13-.03.2,0,.69-.27,1.35-.75,1.84-.81.67-1.99.61-2.73-.14-.43-.54-.63-1.22-.56-1.91M90.01,9.55s.06,1.87.06,1.92c.06,0,1.86-.06,1.92-.06,0-.06-.06-1.92-.06-1.92l.62-.02h.03l.15,4.66-.65.02s-.07-2.04-.07-2.09l-1.92.07c0,.06.07,2.09.07,2.09l-.66.02-.15-4.66.65-.03ZM88.77,15.98c2.09-.12,4.1-.19,5.95-.19,8.82,0,21.37,1.42,29.11,4.16h-35.06v-3.97ZM88.77,22.08h36.87c0,.09.01.17.02.25v1.05h-32.85v8.98h15.12v1.3h-19.15v-11.58ZM94.93,28.94h30.72v1.3h-30.72v-1.3ZM125.65,33.67h-15.6v-1.3h15.6v1.3ZM94.93,25.51h30.72v1.3h-30.72v-1.3ZM107.92,35.79v8.16h-26.18v-1.3h21.64v-5.55h-21.64v-17.16h-16.09c5.59-1.97,13.64-3.25,21-3.81v19.67h21.27ZM84.07,9.95h.03l.07.64-1.28.15c0,.06.45,3.99.45,3.99l-.65.07s-.44-3.94-.44-4c-.06,0-1.28.14-1.28.14l-.07-.64,3.17-.36ZM74.22,11.4l.63-.12h.02l2.62,4.24-.7.13s-.61-1.03-.63-1.06l-1.95.37s-.2,1.22-.2,1.22l-.67.13.88-4.91ZM65.4,14.08c.48-.79,1.38-1.21,2.29-1.07h.02l.14.7h-.05c-.28-.1-.59-.11-.88-.02-.38.1-.71.35-.9.69-.23.44-.27.96-.12,1.43.15.87.99,1.46,1.86,1.31.03,0,.06-.01.09-.02.3-.08.57-.24.79-.45l.04-.04.23.68h-.02c-.26.21-.56.36-.88.43-.55.17-1.14.12-1.65-.16-.58-.35-.99-.92-1.14-1.58-.2-.63-.14-1.31.17-1.89M63.77,22.33c0-.08,0-.17.01-.27h15.83v15.04h-15.84v-14.77ZM63.77,39.22h37.48v1.31h-21.63v5.55h30.43v-10.28h15.6v10.86c.02.53-.1,1.05-.37,1.5-.22.27-.5.49-.82.64-4.68,1.6-9.51,2.7-14.42,3.29v-4.7h-46.21c-.04-.24-.06-.48-.07-.73v-7.44ZM107.92,49.5v2.85c-4.38.53-8.79.81-13.2.84-8.3,0-19.86-1.26-27.67-3.69h40.87ZM63.5,55.54c-.4-.11-.73-.39-.92-.76-.22-.54-.21-1.14.02-1.68l.88-2.55v-.03s.63.21.63.21l-.86,2.49c-.19.4-.21.85-.07,1.27.25.41.76.59,1.22.42.37-.24.62-.62.72-1.05l.86-2.5.61.22-.88,2.57c-.42,1.23-1.21,1.72-2.2,1.37M68.67,57.07s-.69-3.89-.72-4.07c-.06.19-1.04,3.56-1.04,3.56l-.63-.18,1.3-4.45v-.03s.83.24.83.24c0,0,.67,3.79.71,3.98.06-.19,1.02-3.48,1.02-3.48l.63.18-1.31,4.47-.78-.23ZM71.37,57.79l-.63-.16,1.13-4.48v-.03s.64.16.64.16l-1.14,4.52ZM73.7,58.33l-.55-4.85v-.04l.71.16s.37,4.01.38,4.14c.07-.12,2.11-3.6,2.11-3.6l.67.15-2.56,4.21-.77-.17ZM79.88,55.44s-1.64-.29-1.7-.3c0,.06-.21,1.21-.22,1.26.06.01,1.55.27,1.55.27l-.11.63s-1.49-.26-1.55-.28c-.01.06-.24,1.38-.25,1.44.06,0,1.7.3,1.7.3l-.11.63-2.34-.41.8-4.56v-.03s2.35.41,2.35.41l-.11.63ZM83.38,56.58c-.06.5-.46.89-.97.93.16.12.27.3.31.5l.54,1.96-.73-.1-.41-1.68c-.12-.45-.29-.48-.6-.51,0,0-.27-.04-.32-.04l-.28,2.02-.65-.09.62-4.59v-.03s1.04.14,1.04.14c.48.01.93.21,1.26.54.14.19.22.43.21.67,0,.09,0,.18-.02.27M85.54,57.42c.61.27.98.89.93,1.56-.03.74-.66,1.31-1.4,1.28-.09,0-.18-.02-.27-.04-.29-.04-.58-.14-.84-.28h-.02s.14-.68.14-.68l.03.02c.25.15.53.25.82.3.22.02.44-.04.61-.17.14-.12.23-.28.24-.46.04-.45-.29-.67-.68-.92-.45-.3-.96-.63-.88-1.42.04-.69.64-1.21,1.32-1.16.05,0,.11.01.16.02.3.03.6.12.87.25h.02s-.16.67-.16.67l-.03-.02c-.22-.15-.48-.24-.74-.26-.2-.03-.4.02-.56.13-.12.09-.18.23-.19.38-.04.36.27.57.62.8M87.98,60.41l-.65-.05.34-4.62v-.03l.66.05-.34,4.65ZM92.24,56.61s-1.22-.06-1.28-.06c0,.06-.18,4.01-.18,4.01l-.65-.03s.18-3.95.18-4.01l-1.28-.06.03-.6v-.04l3.22.14-.03.64ZM96.64,56.04s-1.61,2.66-1.62,2.66v1.95h-.65v-1.94l-1.61-2.67-.03-.05h.77s1.16,1.95,1.21,2.03c.05-.09,1.19-2.03,1.19-2.03h.77l-.02.04ZM102.07,59.94c-.34.38-.82.6-1.33.61-1.23.08-2.08-.82-2.16-2.28-.23-1.15.51-2.27,1.66-2.49.07-.01.14-.02.21-.03,1.21-.07,2.08.85,2.16,2.28.07.68-.12,1.37-.55,1.91M104.4,60.19l-.65.07-.47-4.64,2.21-.23h.03l.06.64s-1.54.16-1.6.16c0,.06.13,1.22.13,1.28l1.53-.15.06.63s-1.47.15-1.53.16c0,.06.21,2.08.21,2.08M111.77,59.21s-.85.13-.88.12c0,0-1.99-1.78-2.1-1.89.02.16.34,2.17.34,2.17l-.64.1-.72-4.61.65-.1s.28,1.8.3,1.95c.21-.33,1.39-2.21,1.42-2.22l.78-.12h.06s-1.58,2.43-1.62,2.48c.04.03,2.48,2.1,2.48,2.1h-.07ZM114.02,58.85c-1.21.24-2.17-.53-2.46-1.96-.38-1.11.2-2.32,1.31-2.7.07-.02.13-.04.2-.06,1.18-.24,2.17.55,2.46,1.97.29,1.43-.31,2.51-1.51,2.76M119.19,57.58l-1.01-1.41c-.13-.28-.46-.39-.74-.26,0,0,0,0,0,0l-.32.08c.02.06.5,1.98.5,1.98l-.64.16-1.12-4.53,1.01-.25c.45-.16.94-.15,1.38.04.27.18.46.47.52.8.02.09.03.19.03.29,0,.4-.22.76-.58.94.19.05.36.18.47.35l1.23,1.63-.72.18ZM120.8,57.15l-1.3-4.47,2.26-.65h.03s.18.61.18.61c0,0-1.6.47-1.66.48.02.05.35,1.18.36,1.24.05-.02,1.51-.44,1.51-.44l.18.62-1.51.44c.02.05.39,1.34.41,1.4l1.66-.48.18.61-2.29.66ZM127.01,55.2s-.75-.93-.77-.96c-.04.01-1.85.62-1.88.63,0,.04-.03,1.23-.03,1.23l-.65.22.21-4.98.61-.2h.02s3.17,3.84,3.17,3.84l-.67.22ZM99.96,13.69c.32.03.63-.08.86-.3.36-.38.56-.88.56-1.4.05-.52-.1-1.05-.42-1.46-.21-.23-.5-.37-.82-.38-.31-.03-.62.08-.85.29-.37.37-.58.88-.58,1.41-.04.82.26,1.79,1.25,1.84M124.36,54.24c.08-.03,1.41-.48,1.48-.5-.05-.06-1.34-1.68-1.43-1.8,0,.15-.05,2.22-.05,2.3M134.67,13.66c-.3-.43-.7-.78-1.17-1.02-24.86-10.19-52.74-10.19-77.6,0-.47.23-.87.58-1.17,1.02-.35.71-.52,1.49-.48,2.28v38.11c-.03.79.13,1.57.48,2.28.28.41.65.74,1.09.98,12.33,5.09,25.55,7.7,38.89,7.68,13.34.01,26.55-2.6,38.88-7.68.44-.23.81-.57,1.09-.98.35-.71.51-1.49.48-2.28V15.94c.03-.79-.13-1.57-.48-2.28M133.6,54.07c.04.44-.03.89-.21,1.3-.15.28-.38.52-.66.67-11.29,4.98-25.38,7.45-38.03,7.45s-26.74-2.48-38.03-7.45c-.28-.16-.51-.39-.66-.67-.18-.41-.25-.86-.21-1.3V15.97c-.04-.44.03-.89.21-1.3.15-.28.38-.52.66-.67,11.29-4.98,25.38-7.46,38.03-7.46s26.74,2.48,38.03,7.45c.28.15.51.39.66.67.18.41.25.86.21,1.3v38.11ZM101.35,56.67c-.49-.42-1.23-.37-1.67.1-.32.42-.47.94-.41,1.47,0,.52.21,1.02.57,1.4.24.21.55.31.87.29.32-.01.61-.15.83-.39.6-.88.53-2.06-.18-2.86M82,55.75s-.48-.06-.54-.08c0,.06-.17,1.27-.18,1.33l.47.06c.25.05.5,0,.71-.14.14-.1.22-.26.24-.43,0-.03.01-.07.01-.11,0-.35-.26-.58-.72-.65M114.08,54.92c-.55-.35-1.27-.2-1.64.32-.26.46-.34,1-.21,1.51.16.8.69,1.67,1.66,1.47.31-.05.59-.23.77-.5.47-.96.24-2.11-.57-2.81M117.15,53.95s-.47.12-.52.13c.01.05.3,1.24.32,1.3l.46-.11c.45-.11.7-.37.7-.7,0-.06,0-.12-.02-.18-.1-.4-.44-.56-.94-.44M74.66,12.07c-.02.15-.35,2.19-.36,2.27.08-.02,1.46-.28,1.54-.29-.04-.07-1.1-1.85-1.18-1.98"/>
      </g>
    </g>
  </g>
</svg>