<?xml version="1.0" encoding="UTF-8"?>
<svg id="_레이어_2" data-name="레이어 2" xmlns="http://www.w3.org/2000/svg" viewBox="0 0 360 70">
  <defs>
    <style>
      .cls-1 {
        fill: #479492;
      }

      .cls-1, .cls-2, .cls-3, .cls-4 {
        stroke-width: 0px;
      }

      .cls-2 {
        fill: #f07700;
      }

      .cls-3 {
        fill: none;
      }

      .cls-4 {
        fill: #00575b;
      }
    </style>
  </defs>
  <g id="_레이어_1-2" data-name="레이어 1">
    <g>
      <rect class="cls-3" width="360" height="70"/>
      <g id="logo">
        <path id="_패스_373" data-name="패스 373" class="cls-1" d="M66.91,34.93c.04-14.69,11.98-26.57,26.67-26.53,14.69.04,26.57,11.98,26.53,26.67-.04,14.69-11.98,26.57-26.67,26.53h0c-14.68-.05-26.55-11.98-26.53-26.67M66.51,34.93c-.04,14.91,12.02,27.03,26.93,27.07,14.91.04,27.03-12.02,27.07-26.93.04-14.91-12.02-27.03-26.93-27.07-14.9-.02-27.01,12.03-27.07,26.93"/>
        <path id="_패스_374" data-name="패스 374" class="cls-1" d="M69.51,34.94c.03-13.25,10.8-23.96,24.05-23.93,13.25.03,23.96,10.8,23.93,24.05-.03,13.25-10.8,23.96-24.05,23.93,0,0,0,0,0,0-13.24-.05-23.95-10.81-23.93-24.05M68.38,34.94c-.03,13.88,11.19,25.16,25.07,25.19,13.88.03,25.16-11.19,25.19-25.07.03-13.88-11.19-25.15-25.06-25.19-13.87-.02-25.14,11.19-25.19,25.06"/>
        <path id="_패스_375" data-name="패스 375" class="cls-1" d="M79.32,40.97c-3.3-7.84.38-16.86,8.22-20.15,7.84-3.3,16.86.38,20.15,8.22,1.27,3.02,1.54,6.36.78,9.55l.31.33c2.16-8.44-2.93-17.03-11.37-19.19-8.44-2.16-17.03,2.93-19.19,11.37-.85,3.33-.59,6.84.73,10.01l.36-.13Z"/>
        <path id="_패스_376" data-name="패스 376" class="cls-1" d="M99.52,54.42v-3.99s-.43,0-.43,0v3.97h-.91l.02-6.35h.9v1.73s.44,0,.44,0v-1.73h.91v6.36s-.92,0-.92,0Z"/>
        <path id="_패스_377" data-name="패스 377" class="cls-1" d="M106.98,50.1h-.8v2.07h-1.04v-4.09h1.04v1.37h.8v.64Z"/>
        <path id="_패스_378" data-name="패스 378" class="cls-1" d="M94.58,50.06h-.8v2.07h-1.04v-4.09h1.04v1.37s.8,0,.8,0v.65Z"/>
        <path id="_패스_379" data-name="패스 379" class="cls-1" d="M88.4,50.71h-.8v3.67h-1.04l.02-6.36h1.03v2.04s.8,0,.8,0v.64Z"/>
        <path id="_패스_380" data-name="패스 380" class="cls-1" d="M84.36,48.03c-1.24,0-1.65,1.42-1.65,2.45s.41,2.45,1.64,2.45,1.65-1.41,1.65-2.44-.41-2.45-1.64-2.45M84.96,50.49c0,.74-.09,1.77-.6,1.77s-.6-1.03-.6-1.77.09-1.77.6-1.77.6,1.03.59,1.77"/>
        <path id="_패스_381" data-name="패스 381" class="cls-1" d="M90.66,50.44h0c.35.51.81.94,1.35,1.24l.45-.55c-.41-.24-.74-.59-.97-1.01-.24-.49-.36-1.04-.33-1.58v-.44h-1.06v.44c.02.55-.09,1.09-.34,1.58-.23.42-.57.76-.98,1.01l.45.55c.56-.3,1.05-.72,1.43-1.23"/>
        <path id="_패스_382" data-name="패스 382" class="cls-1" d="M96.6,50.69c.26.58.66,1.08,1.17,1.46l.5-.5c-.34-.24-.63-.56-.84-.93-.28-.48-.43-1.03-.43-1.59v-.37h.83v-.64h-2.63s0,.64,0,.64h.76v.37c.04.55-.06,1.09-.29,1.59-.18.36-.44.68-.76.92l.49.51c.52-.37.93-.87,1.2-1.45"/>
        <path id="_패스_383" data-name="패스 383" class="cls-1" d="M90.29,54.25c-.16,0-.29-.13-.29-.29v-1.9h1.04v1.53s2.83,0,2.83,0v.66h-3.58Z"/>
        <path id="_패스_384" data-name="패스 384" class="cls-1" d="M102.51,54.28c-.16,0-.29-.13-.29-.29v-1.9h1.03v1.53h2.83v.67h-3.58Z"/>
        <path id="_패스_385" data-name="패스 385" class="cls-1" d="M101.59,48.13v2.89c0,.16.12.29.28.29h2.76s0-.65,0-.65h-2.03s0-1.88,0-1.88h1.72s0-.64,0-.64h-2.74Z"/>
        <path id="_패스_386" data-name="패스 386" class="cls-1" d="M76.29,37.31l-.03-.96-1.03-.18-.03-1,1.01-.24-.03-.96-4.89,1.33.04,1.04,4.97.98ZM74.42,36.05l-1.79-.28h0s1.77-.42,1.77-.42l.03.7Z"/>
        <path id="_패스_387" data-name="패스 387" class="cls-1" d="M74.94,32.71c.45-.35.63-.56.68-.82.05-.21-.09-.42-.3-.47,0,0-.02,0-.03,0-.7-.13-1.49,1.12-2.66.9-.67-.12-1.12-.76-1-1.43,0-.01,0-.03,0-.04.07-.34.23-.65.47-.89l.91.17c-.35.39-.46.56-.5.77-.06.19.04.39.23.46,0,0,.02,0,.03,0,.57.1,1.53-1.17,2.67-.96.71.09,1.21.74,1.12,1.45,0,.02,0,.04,0,.06-.09.38-.29.73-.58.99l-1.03-.19Z"/>
        <path id="_패스_388" data-name="패스 388" class="cls-1" d="M76.95,29.71l.39-.89-.85-.6.39-.92,1.02.21.39-.89-5-.88-.41.96,4.08,3.01ZM75.8,27.77l-1.5-1.02h0s1.77.37,1.77.37l-.28.65Z"/>
        <path id="_패스_389" data-name="패스 389" class="cls-1" d="M74.96,22.68l.57-.74,2.93.74h0s-2.19-1.7-2.19-1.7l.58-.75,3.89,2.99-.53.69-3.06-.77h0s2.3,1.78,2.3,1.78l-.58.75-3.89-2.99Z"/>
        <path id="_패스_390" data-name="패스 390" class="cls-1" d="M81.46,16.3l2-1.17.42.73-1.14.66.58,1,1.1-.64.42.73-1.1.64,1.03,1.78-.87.5-2.46-4.24Z"/>
        <path id="_패스_391" data-name="패스 391" class="cls-1" d="M86.15,16.52c.53,1.76,1.58,2.2,2.4,1.96.72-.21,1.5-1.07.95-2.91-.52-1.76-1.6-2.15-2.38-1.92-.82.25-1.44,1.27-.96,2.87M87.14,16.27c-.27-.92-.27-1.54.24-1.69.57-.17.89.47,1.13,1.28.34,1.13.21,1.57-.24,1.7-.53.16-.85-.35-1.13-1.29"/>
        <path id="_패스_392" data-name="패스 392" class="cls-1" d="M92.31,12.82l.09,3.38c.01.39.21.66.56.65.39-.01.54-.3.52-.74l-.08-3.32,1-.03.08,3.22c.03,1.08-.45,1.76-1.5,1.78-.92.02-1.56-.47-1.59-1.69l-.09-3.24,1-.02Z"/>
        <path id="_패스_393" data-name="패스 393" class="cls-1" d="M97.09,13.04l.91.21.53,2.97h.01s.64-2.7.64-2.7l.92.22-1.13,4.77-.85-.2-.55-3.11h-.01l-.67,2.82-.92-.22,1.13-4.77Z"/>
        <path id="_패스_394" data-name="패스 394" class="cls-1" d="M100.34,19.05l1.19.64c1.2.65,2.28-.32,2.82-1.31.57-1.05.69-2.37-.53-3.03l-1.15-.62-2.33,4.32ZM101.62,18.8l1.54-2.86.26.14c.61.33.45,1.06,0,1.87-.47.87-.96,1.31-1.6.96l-.2-.11Z"/>
        <path id="_패스_395" data-name="패스 395" class="cls-1" d="M103.76,21l.72.65.84-.62.74.66-.53.9.72.65,2.43-4.44-.77-.7-4.16,2.9ZM105.95,20.53l1.45-1.09h0s-.93,1.55-.93,1.55l-.53-.47Z"/>
        <path id="_패스_396" data-name="패스 396" class="cls-1" d="M110.43,22.03l-.59-.82.68-.5,1.78,2.44-.69.5-.59-.82-3.29,2.39-.59-.81,3.28-2.39Z"/>
        <rect id="_사각형_34" data-name="사각형 34" class="cls-1" x="108.86" y="26.08" width="4.91" height="1" transform="translate(-.69 50.09) rotate(-25.28)"/>
        <path id="_패스_397" data-name="패스 397" class="cls-1" d="M112.32,28.77c-1.79.42-2.3,1.45-2.1,2.28.17.73.98,1.55,2.84,1.12,1.79-.42,2.25-1.47,2.06-2.27-.19-.84-1.18-1.51-2.8-1.13M112.52,29.77c.94-.22,1.55-.19,1.67.35.13.58-.52.86-1.35,1.05-1.15.27-1.58.11-1.68-.35-.13-.53.4-.83,1.36-1.05"/>
        <path id="_패스_398" data-name="패스 398" class="cls-1" d="M115.69,34.22l-.03.93-2.81,1.09h0s2.77.11,2.77.11l-.03.95-4.9-.18.03-.88,2.94-1.15h0s-2.89-.11-2.89-.11l.03-.95,4.91.18Z"/>
        <path id="_패스_399" data-name="패스 399" class="cls-4" d="M99.41,23.44c-1.2-1.21-2.84-1.89-4.54-1.89-1.22,0-2.41.33-3.44.98-1.19.74-2.26,1.63-3.2,2.66-1.68,1.76-5.96,8.18-7.65,10.53-1.22,1.7-3.27,4.66-4.15,6.17-1.09,1.86-1.99,2.93-1.48,3.5.9,1,1.97-1.69,2.18-.61.08.41-1.94,3.52-3.38,6.08-.75,1.32-.04,3.41,2.78,1.69,0,0,1.64-1.39,3.13-2.88,2.08-2.08,3.95-4.51,6.32-6.45,1.72-1.4,4.4-4.46,6.13-6.12,1.25-1.2.74-1.77,1.82-3.06.55-.65,1.16-1.25,1.82-1.78,1.08-.61,1.66-.08,2.49.81,1.21,1.29,3.07,3.62,4.27,4.74,1.65,1.53,4.07,4.01,5.51,5.64.15.17,1.51,1.68,2.83.43.57-.54.31-1.38-.19-2.24h0s.18,0,.18,0h0c.36-.37-1.01-2.14-1.66-3.58-5.03-9.74-8.34-13.57-10.24-15.08"/>
        <path id="_패스_400" data-name="패스 400" class="cls-2" d="M102.56,42.82c-.18.57-2.15.57-3.95.74-1.56.15-5.91.51-7.19.55-1.95.16-3.91.2-5.87.13-2.59-.38-3.26-1.39-3.76-2.28-.93-1.69-.78-4.45.15-4.95.96-.51,2.06.24,4.09.19.83-.01,1.67.03,2.49.13,1.33.15,2.7.22,4.04.48,1.91.37,4.72.63,6.72.81,1.04.11,2.07.32,3.08.61,2.48.84,1.58,2.05.85,2.32-.2.08-1.13.4-1.13.59s.52.52.48.65"/>
        <path id="_패스_401" data-name="패스 401" class="cls-4" d="M258.73,29.51v-2.56s4.03.01,4.03.01v2.56s-4.03-.01-4.03-.01ZM254.81,32.34h-6.14s.01-4.13.01-4.13h6.14s-.01,4.13-.01,4.13ZM262.77,24.1h-4.03s0-2.98,0-2.98h-3.91s0,4.22,0,4.22h-6.14s0-4.25,0-4.25h-3.86s-.03,12.82-.03,12.82c.02.73.63,1.31,1.37,1.29l12.54.03v-2.87s4.04,0,4.04,0v4.08s3.86,0,3.86,0l.04-15.61h-3.87s-.02,3.24-.02,3.24Z"/>
        <path id="_패스_402" data-name="패스 402" class="cls-4" d="M274.83,40.72l-.02,6.44c.02.73.64,1.31,1.37,1.29l17.16.04v-2.94s-14.57-.04-14.57-.04v-4.78s-3.95-.01-3.95-.01Z"/>
        <path id="_패스_403" data-name="패스 403" class="cls-4" d="M274.84,38.9h3.95s0-3.7,0-3.7l10.78.03v1.21h-5.87s0,2.95,0,2.95h5.87s0,2.83,0,2.83h3.87s.05-21.19.05-21.19h-3.87s-.03,11.24-.03,11.24l-18.63-.05v2.96s3.88,0,3.88,0v3.72Z"/>
        <path id="_패스_404" data-name="패스 404" class="cls-4" d="M237.82,20.79h-4.35s-.05,18.5-.05,18.5h4.35s.03-9.37.03-9.37h3.95s0-2.9,0-2.9h-3.95s.01-6.23.01-6.23Z"/>
        <path id="_패스_405" data-name="패스 405" class="cls-4" d="M209.54,20.71h-4.35s-.07,28.13-.07,28.13h4.35s.04-17.25.04-17.25h3.95s0-2.9,0-2.9h-3.95s.02-7.97.02-7.97Z"/>
        <path id="_패스_406" data-name="패스 406" class="cls-4" d="M194.85,23.66c2.44,0,2.83,4.45,2.82,7.62s-.42,7.61-2.86,7.61-2.83-4.45-2.82-7.62.43-7.61,2.86-7.6M194.8,41.8c5.31.01,7.11-6.1,7.12-10.51s-1.75-10.54-7.07-10.55-7.11,6.1-7.12,10.51,1.75,10.53,7.06,10.55"/>
        <path id="_패스_407" data-name="패스 407" class="cls-4" d="M223.38,31.31c.23.82,3.3,4.3,5.8,5.62l1.94-2.47c-1.78-1.13-3.22-2.72-4.18-4.6-1.05-2.24-1.53-4.7-1.42-7.17v-1.67h-4.55s0,1.65,0,1.65c.1,2.47-.39,4.93-1.45,7.17-.97,1.87-2.42,3.45-4.21,4.57l1.93,2.47c2.51-1.3,5.9-4.77,6.13-5.59"/>
        <path id="_패스_408" data-name="패스 408" class="cls-4" d="M220.4,38.31l-.02,8.62c0,.73.59,1.32,1.32,1.32l16.18.04v-3s-13.15-.03-13.15-.03l.02-6.93h-4.35Z"/>
        <path id="_패스_409" data-name="패스 409" class="cls-4" d="M251.04,43.51c0-2.23,2.48-3.35,5.52-3.35s5.51,1.18,5.5,3.38-2.48,3.35-5.52,3.35-5.51-1.15-5.5-3.38M266.49,43.54c0-3.79-4.44-6.02-9.92-6.04s-9.94,2.2-9.95,5.99,4.44,6.02,9.92,6.03,9.94-2.19,9.95-5.98"/>
        <path id="_패스_410" data-name="패스 410" class="cls-4" d="M279.47,22.82c1.81,0,3.29.99,3.28,2.94s-1.48,2.93-3.29,2.92-3.28-1.02-3.28-2.94,1.48-2.93,3.29-2.93M279.44,30.97c4.21.01,7.64-1.87,7.64-5.2s-3.4-5.22-7.62-5.24-7.64,1.89-7.64,5.2c0,3.31,3.4,5.22,7.62,5.24"/>
        <path id="_패스_411" data-name="패스 411" class="cls-4" d="M169.27,35.87h-.53l-8-.02v2.93s16.61.04,16.61.04v1.69l-16.62-.04-.03,6.22c.02.73.64,1.31,1.37,1.29l20.03.06v-2.95s-17.03-.04-17.03-.04v-1.85s16.62.04,16.62.04l.02-7.34-8.11-.02v-1.77s10.56.03,10.56.03v-2.97s-25.46-.06-25.46-.06v2.97s10.55.03,10.55.03v1.77Z"/>
        <path id="_패스_412" data-name="패스 412" class="cls-4" d="M143.94,30.52l6.08.02-.05,18.2h4.36s.07-28.17.07-28.17h-4.36s-.02,7.11-.02,7.11h-6.08s0,2.84,0,2.84Z"/>
        <path id="_패스_413" data-name="패스 413" class="cls-4" d="M177.13,25.06c0,1.62-2.54,2.46-5.67,2.45s-5.66-.85-5.65-2.48,2.54-2.46,5.67-2.45,5.66.86,5.65,2.48M160.82,25.02c0,3.24,4.76,5.09,10.63,5.11s10.66-1.82,10.66-5.05-4.76-5.1-10.64-5.11c-5.88-.01-10.65,1.81-10.66,5.06"/>
        <path id="_패스_414" data-name="패스 414" class="cls-4" d="M138.07,36.67c.24.83,3.74,4.66,6.28,5.62l2.04-2.46c-1.85-1.12-3.37-2.7-4.4-4.6-1.18-2.43-1.77-5.11-1.72-7.81l.02-6.61h-4.34s-.02,6.6-.02,6.6c.03,2.7-.57,5.38-1.76,7.8-1.04,1.89-2.57,3.47-4.42,4.58l2.03,2.47c2.55-.95,6.07-4.77,6.31-5.59"/>
      </g>
    </g>
  </g>
</svg>