<?xml version="1.0" encoding="UTF-8"?>
<svg id="_레이어_2" data-name="레이어 2" xmlns="http://www.w3.org/2000/svg" viewBox="0 0 360 70">
  <defs>
    <style>
      .cls-1 {
        fill: #343535;
      }

      .cls-1, .cls-2, .cls-3, .cls-4 {
        stroke-width: 0px;
      }

      .cls-2 {
        fill: none;
      }

      .cls-3 {
        fill: #fff;
      }

      .cls-4 {
        fill: #002b6d;
      }
    </style>
  </defs>
  <g id="_레이어_1-2" data-name="레이어 1">
    <g>
      <rect class="cls-2" width="360" height="70"/>
      <g id="logo">
        <path id="_패스_302" data-name="패스 302" class="cls-3" d="M64.71,35c0,11.05,8.95,20,20,20s20-8.95,20-20-8.95-20-20-20c0,0,0,0-.01,0-11.04.02-19.98,8.96-19.99,20"/>
        <path id="_패스_303" data-name="패스 303" class="cls-4" d="M65.31,34.99c0-10.71,8.7-19.39,19.42-19.38,10.71,0,19.39,8.7,19.38,19.42,0,10.71-8.69,19.38-19.4,19.38-10.71-.02-19.39-8.7-19.4-19.42"/>
        <path id="_패스_304" data-name="패스 304" class="cls-3" d="M84.7,49.15c-7.81,0-14.15-6.33-14.15-14.14,0-7.81,6.33-14.15,14.14-14.15,7.81,0,14.15,6.33,14.15,14.14,0,7.81-6.33,14.15-14.14,14.15h0"/>
        <path id="_패스_305" data-name="패스 305" class="cls-3" d="M68.36,39.59c0,.3.25.54.54.54s.54-.25.54-.54c0-.3-.24-.54-.54-.54-.29,0-.54.23-.54.52,0,0,0,.01,0,.02"/>
        <path id="_패스_306" data-name="패스 306" class="cls-3" d="M101.26,39.67c.03.3-.2.57-.5.6s-.57-.2-.6-.5c0-.03,0-.06,0-.09-.03-.3.2-.57.5-.6s.57.2.6.5c0,.03,0,.06,0,.09"/>
        <path id="_패스_307" data-name="패스 307" class="cls-3" d="M69.13,28.49c-.34-.13-.72-.11-1.05.05-.36.21-.62.55-.72.95-.29.74.07,1.57.81,1.86.04.01.07.03.11.04.73.26,1.54-.12,1.8-.86.02-.04.03-.09.04-.13.14-.39.11-.82-.07-1.19-.19-.36-.52-.62-.91-.73M69.93,30.19c-.23.6-.91.9-1.51.67-.03-.01-.05-.02-.08-.03-.92-.29-.89-.85-.8-1.16.08-.24.25-.45.48-.56.34-.15.72-.16,1.07-.03.33.07.62.27.8.56.09.17.1.37.04.56"/>
        <path id="_패스_308" data-name="패스 308" class="cls-3" d="M72.97,24.94l-.5-.48.1-.11s.17.12.23.15c.2.11.45.06.59-.12.17-.14.2-.39.06-.56,0,0-.01-.02-.02-.02-.12-.13-.28-.19-.64-.14l-.21.04c-.35.1-.74.02-1.02-.21-.29-.31-.28-.8.03-1.1.02-.01.03-.03.05-.04.3-.31.47-.33.47-.33l.44.42-.11.12c-.07-.09-.18-.14-.29-.15-.14-.01-.28.04-.37.15-.15.12-.18.33-.06.48.01.01.02.03.03.04.1.1.22.14.61.08l.13-.02c.38-.13.81-.05,1.12.21.19.18.28.45.23.71-.04.21-.15.39-.3.54-.14.18-.33.3-.55.35"/>
        <path id="_패스_309" data-name="패스 309" class="cls-3" d="M96.95,25.59l.58-.4.08.13s-.15.14-.19.19c-.14.17-.15.42-.01.6.1.2.35.28.55.17,0,0,.01,0,.02-.01.15-.09.25-.23.27-.6v-.21c-.01-.37.15-.73.43-.96.37-.22.84-.1,1.06.27.01.02.02.04.03.05.13.15.21.33.24.53l-.51.33-.09-.12c.1-.06.17-.15.21-.25.05-.14.02-.29-.07-.4-.08-.17-.29-.25-.47-.16-.01,0-.03.01-.04.02-.12.09-.18.2-.2.59v.13c-.04.57-.16.85-.45,1.05-.22.15-.5.18-.75.07-.19-.09-.35-.23-.46-.4-.14-.17-.22-.39-.23-.61"/>
        <path id="_패스_310" data-name="패스 310" class="cls-3" d="M75.1,21.28c.15-.11.2-.07.31.09l.1-.07-.45-.61-.1.08c.11.16.15.21,0,.31l-.44.32-.56-.75s.33-.25.43-.33c.2-.14.29-.05.4.11l.1-.08-.34-.46-1.44,1.08.08.11c.1-.07.27-.23.43-.02s1.21,1.62,1.21,1.62c.18.24.1.28-.08.41l.09.11,1.48-1.1-.37-.5-.11.08c.16.22.13.37-.02.48l-.47.35-.67-.9h0s.42-.33.42-.33Z"/>
        <path id="_패스_311" data-name="패스 311" class="cls-3" d="M94.39,21.44c.15.1.12.16,0,.32l.11.07.42-.64-.1-.07c-.11.16-.15.2-.3.1l-.45-.3.53-.78s.35.24.44.3c.21.14.14.25.04.41l.1.07.32-.48-1.5-1.01-.08.11c.1.07.31.19.17.41l-1.13,1.69c-.16.25-.24.17-.41.05l-.08.12,1.54,1.03.35-.52-.11-.08c-.16.23-.31.25-.46.15l-.49-.32.63-.93h0l.45.3Z"/>
        <path id="_패스_312" data-name="패스 312" class="cls-3" d="M76.65,19.09c-.08-.16,0-.2.2-.31l-.06-.11-1.02.52.06.12s.25-.18.36.02l1,1.94c.08.17,0,.21-.2.31l.06.12,1.1-.57-.06-.11c-.16.09-.34.2-.43,0s-1.01-1.94-1.01-1.94"/>
        <path id="_패스_313" data-name="패스 313" class="cls-3" d="M82.58,18.41l-.23-1.12c-.03-.18.05-.2.27-.24l-.03-.13-.98.19.03.13s.3-.11.35.13c0,.05.23,1.19.23,1.19.11.29.1.62-.02.91-.1.15-.26.25-.44.28-.15.04-.32.02-.46-.06-.16-.08-.33-.24-.44-.8l-.25-1.24c-.03-.18.05-.2.27-.24l-.03-.12-1.12.22.02.13s.31-.11.35.12c0,.06.25,1.26.25,1.26.04.36.23.7.52.91.27.13.57.16.86.08.28-.04.54-.19.71-.41.21-.35.26-.78.13-1.17"/>
        <path id="_패스_314" data-name="패스 314" class="cls-3" d="M89.11,17.72c.04-.18.12-.16.35-.12l.02-.12-1.12-.26-.04.13s.32.03.27.26c-.02.11-.49,2.12-.49,2.12-.04.18-.13.16-.35.11l-.02.13,1.2.28.03-.12c-.19-.04-.4-.06-.35-.27s.49-2.12.49-2.12"/>
        <path id="_패스_315" data-name="패스 315" class="cls-3" d="M100.84,27.44c.17-.08.21,0,.31.19l.12-.05-.5-1.03-.12.05s.18.27-.04.37c-.11.05-1.96.96-1.96.96-.16.08-.2,0-.3-.2l-.12.06.55,1.11.12-.05c-.09-.17-.2-.35,0-.45s1.95-.96,1.95-.96"/>
        <path id="_패스_316" data-name="패스 316" class="cls-3" d="M101.78,28.78l-.57.08.04.14c.19-.03.32-.04.39.2.02.04.04.13.16.53-.32.09-2.15.63-2.15.63-.18.05-.21-.04-.27-.24l-.13.04.35,1.19.13-.04c-.05-.19-.14-.38.06-.44.19-.06,1.88-.56,2.16-.64.12.4.15.49.16.53.07.24-.06.31-.23.39l.05.14.53-.24-.67-2.27Z"/>
        <path id="_패스_317" data-name="패스 317" class="cls-3" d="M97.84,22.71c-.06-.23-.19-.44-.38-.6l-.77-.77-.09.1s.26.18.09.35c-.08.08-1.54,1.55-1.54,1.55-.12.13-.2.07-.36-.09l-.09.1.88.87.09-.09c-.13-.13-.3-.25-.15-.42l.58-.59.24.23-.11.63c-.06.25-.06.5-.01.75.04.13.13.25.23.34l.26.26.08-.08-.06-.08c-.08-.13-.12-.29-.11-.44,0-.28.04-.61.08-1.04l.02-.18c.33.07.67-.03.91-.25.15-.14.21-.34.18-.54M97.19,23.04c-.12.16-.31.24-.51.22-.07,0-.11-.02-.21-.13l-.19-.18.86-.86.13.12c.21.23.2.58-.03.79-.01.01-.03.03-.05.04"/>
        <path id="_패스_318" data-name="패스 318" class="cls-3" d="M68.49,33.17c-.12,0-.24-.03-.35-.08-.38-.24-.74-.51-1.09-.79-.06-.06-.11-.13-.15-.2-.02-.05-.03-.1-.03-.15,0-.04.01-.11.01-.11h-.13s-.09.92-.09.92h.13s0-.07,0-.09.03-.05.07-.05c.06.01.12.03.17.07.05.03.89.6.89.6,0,0-.99.46-1.09.49-.04.02-.08.03-.12.03,0,0-.03-.01-.03-.03v-.11h-.12s-.09,1.03-.09,1.03h.12c0-.07.02-.14.07-.21.08-.09.17-.17.28-.22.19-.11,1.04-.52,1.09-.53.12-.05.25-.07.38-.06,0,0,.38.04.62.07s.23.15.21.33h.12s.11-1.21.11-1.21l-.12-.02c-.02.21-.02.4-.29.38l-.6-.06"/>
        <path id="_패스_319" data-name="패스 319" class="cls-3" d="M100.95,33.75c.12-.02.24-.02.35.01.41.17.82.36,1.21.58.08.04.14.1.18.17.03.04.05.09.06.14,0,.03,0,.1,0,.1h.13s-.08-.94-.08-.94l-.14.02s.01.07.01.1c0,.03-.03.05-.06.05-.06,0-.12,0-.18-.03-.06-.02-.99-.42-.99-.42,0,0,.88-.63.97-.68.03-.02.07-.04.11-.05,0,0,.03,0,.03.03h.01s0,.07,0,.1l.13-.02-.1-1.04-.13.02c0,.08,0,.16-.03.24-.06.1-.14.19-.23.26-.18.15-.92.71-.98.73-.11.07-.23.11-.35.12,0,0-.37.04-.61.05-.23.03-.25-.09-.27-.28l-.12.02.12,1.23.12-.02c-.02-.21-.06-.4.21-.42s.6-.06.6-.06"/>
        <path id="_패스_320" data-name="패스 320" class="cls-3" d="M72.26,25.95l-.1.16-2.7.61,1.32.82c.28.16.38-.05.47-.21l.11.07-.55.88-.11-.07c.09-.15.19-.28-.08-.44l-2.04-1.26.09-.15c.46-.1,2.67-.59,2.74-.6l-1.38-.85c-.24-.15-.35.05-.42.17l-.11-.07.51-.82.11.07c-.08.13-.17.25.07.41s2.06,1.26,2.06,1.26"/>
        <path id="_패스_321" data-name="패스 321" class="cls-3" d="M86.5,19.77h-.19s-1.82-2.11-1.82-2.11l-.09,1.55c-.02.33.21.31.4.32v.13s-1.05-.06-1.05-.06v-.14c.17.02.34.04.36-.27s.14-2.38.14-2.38h.17c.31.38,1.78,2.09,1.83,2.15,0,0,.08-1.32.1-1.61s-.21-.29-.35-.3v-.13s.97.06.97.06v.13c-.17,0-.31-.03-.33.25s-.15,2.4-.15,2.4"/>
        <path id="_패스_322" data-name="패스 322" class="cls-3" d="M93.21,19.07l.03-.14-.83-.37-.06.13.1.04s.05.04.05.08c-.03.06-.06.11-.1.16l-.78.78s-.45.44-.51.51c0-.07.05-1.09.08-1.52l.02-.39s0-.07.02-.1c.03-.02.06-.02.09,0l.09.04.05-.13-.98-.43-.05.12c.07.03.13.07.18.13.04.09.06.2.05.3l-.05,2.62.11.05,1.49-1.37.53-.49c.1-.08.23-.11.36-.07l.09.04Z"/>
        <path id="_패스_323" data-name="패스 323" class="cls-3" d="M85.62,50.25v.87h-.23v-.87h-.58v.07c.05,0,.11.1.11.21v1.85h-1.2v-1.66h.8v-.39h-1.41v.07c.06,0,.11.1.11.2v2.17h1.71v.61s.44,0,.47,0v-1.89h.23v1.9h.5v-3.15h-.51Z"/>
        <path id="_패스_324" data-name="패스 324" class="cls-3" d="M99.22,45.51c-.4-.34-1.91-1.6-1.94-1.61,0,0-1.56,1.87-1.58,1.9.03.02.27.23.3.25.02-.02,1.26-1.52,1.26-1.52,0,0,1.27,1.05,1.64,1.36-.14.16-.25.3-.25.3,0,0-.82-.68-.85-.7-.03.03-.29.35-.31.36.03.03.86.71.86.71l-.17.2s-.83-.68-.85-.71c-.02.03-.35.41-.36.43.02.01.04.03.05.04.04-.05.15-.02.24.05l.64.52s-.35.42-.36.44c.02.02.28.24.3.25.02-.02,1.86-2.24,1.88-2.27-.02-.02-.28-.23-.3-.25,0,.01-.09.11-.19.24"/>
        <path id="_패스_325" data-name="패스 325" class="cls-3" d="M78.75,49.06s-1.3,2.83-1.32,2.86c.03,0,.44.2.46.21.01-.03,1.3-2.82,1.32-2.86h0s-.42-.2-.45-.21"/>
        <path id="_패스_326" data-name="패스 326" class="cls-3" d="M78.05,48.74s-.01.04-.02.06c.05.03.06.14.02.23l-.24.53s-.45-.21-.48-.22c0,.03-.15.33-.16.36.02.01.48.22.48.22,0,0-.78,1.69-.79,1.72.03,0,.38.17.4.18.02-.03,1.3-2.83,1.32-2.86,0,0-.48-.22-.51-.23"/>
        <path id="_패스_327" data-name="패스 327" class="cls-3" d="M76.74,49.62v-.03s0-.01,0-.01c.34-.26.62-.6.79-.99-.03-.01-.63-.29-.66-.31,0,.02-.02.05-.02.06s.12.1.02.34c-.31.55-.82.96-1.43,1.14.01.03.11.27.12.3.3-.05.59-.16.85-.32h.01s0,0,0,0c.14.3.24.62.28.95.04-.02.4-.22.41-.23-.08-.31-.21-.62-.37-.9"/>
        <path id="_패스_328" data-name="패스 328" class="cls-3" d="M91.21,51.53l1.9-.92s.28.59.3.61c.03-.01.42-.2.45-.22-.02-.03-.45-.94-.46-.97-.04.02-2.33,1.12-2.36,1.13l.17.36"/>
        <path id="_패스_329" data-name="패스 329" class="cls-3" d="M92.5,48.17s-.53.26-.57.27c.02.02.03.04.04.06.06-.03.15.04.19.14,0,0,.65,1.35.67,1.37.03-.01.43-.2.46-.22-.02-.03-.25-.51-.25-.51l.45-.22s-.13-.3-.15-.32c-.03.02-.44.22-.44.22,0,0-.37-.77-.39-.8"/>
        <path id="_패스_330" data-name="패스 330" class="cls-3" d="M90.43,50.34c.25.43.8.58,1.23.33.39-.22.55-.7.39-1.11-.1-.2-.28-.34-.49-.39.2-.09.34-.16.34-.16-.02-.03-.16-.33-.17-.36-.03.02-.64.31-.64.31,0,0-.1-.22-.11-.24,0,0-.53.26-.56.27,0,.02.02.04.03.07.05-.03.12.03.17.11v.02s-.67.33-.67.33c.02.03.15.33.17.35,0,0,.13-.06.31-.15-.09.2-.09.43,0,.63M91.44,50.37c-.23.1-.49,0-.6-.22,0,0,0,0,0,0-.11-.22-.03-.48.19-.59,0,0,0,0,.01,0,.23-.1.49,0,.6.22.11.22.02.49-.2.61"/>
        <path id="_패스_331" data-name="패스 331" class="cls-3" d="M71.11,45.72h0s-.38-.44-.41-.46c-.02,0-.04.03-.05.05.03.04,0,.15-.09.22,0,0-.53.47-.56.49.02.03,1.56,1.8,1.58,1.82.02-.03.27-.24.3-.26l-1.26-1.43s.45-.39.47-.42"/>
        <path id="_패스_332" data-name="패스 332" class="cls-3" d="M72.07,45.83c.14.17.42.48.42.48,0,0-.59.52-.61.54.02.03.31.36.33.38.03-.02,1.69-1.48,1.71-1.5-.02-.02-.38-.44-.4-.47-.02.02-.03.03-.05.05.03.04,0,.15-.09.22l-.08.08s-.39-.43-.47-.53c.03-.27-.06-.54-.24-.74-.32-.39-.89-.45-1.28-.14-.37.34-.38.92-.04,1.28,0,0,0,0,0,0,.2.23.5.36.8.34M72.99,45.89l-.21.18s-.16-.2-.31-.37c.02-.02.05-.05.08-.07.04-.04.08-.08.12-.12.14.15.33.37.33.37M71.61,44.57c.17-.19.47-.21.66-.03.19.17.21.47.03.66-.02.03-.05.05-.08.07-.2.18-.5.17-.69-.02-.17-.21-.13-.52.07-.69"/>
        <path id="_패스_333" data-name="패스 333" class="cls-4" d="M84.7,28.2c-1.15,0-2.08.93-2.08,2.08s.93,2.08,2.08,2.08,2.08-.93,2.08-2.08c0-1.15-.93-2.08-2.08-2.08"/>
        <path id="_패스_334" data-name="패스 334" class="cls-4" d="M79.68,45.2c1.52,1.29,3.21,2.36,5.02,3.17,1.82-.81,3.51-1.88,5.02-3.17l-5.02-5.04-5.02,5.04Z"/>
        <path id="_패스_335" data-name="패스 335" class="cls-4" d="M94.92,33.22v-6.94s-5.91.19-10.22-3.11c-4.31,3.3-10.21,3.11-10.21,3.11v6.94c-.01,1.04.06,2.09.22,3.12,6.61-1.21,13.38-1.21,19.99,0,.16-1.03.23-2.08.22-3.12M84.7,34.34c-2.24,0-4.06-1.82-4.06-4.06,0-2.24,1.82-4.06,4.06-4.06s4.06,1.82,4.06,4.06h0c0,2.24-1.82,4.06-4.06,4.06,0,0,0,0,0,0"/>
        <path id="_패스_336" data-name="패스 336" class="cls-4" d="M74.81,36.92c.04.22.1.43.15.65.55,2.21,1.61,4.26,3.08,5.99l6.66-6.67,6.66,6.67c1.47-1.73,2.53-3.79,3.09-5.99.06-.21.11-.42.15-.65-6.54-1.2-13.25-1.2-19.79,0"/>
        <path id="_패스_337" data-name="패스 337" class="cls-3" d="M77.76,31.9h.96s.06-.03.06-.06v-1.96s-.03-.06-.06-.06h-.78c-.13,0-.24.1-.24.24h0v1.79s.02.06.05.06c0,0,0,0,0,0"/>
        <path id="_패스_338" data-name="패스 338" class="cls-3" d="M76.45,31.9h.95s.05-.02.06-.05c0,0,0,0,0,0v-1.79c0-.13-.1-.24-.23-.24,0,0,0,0,0,0h-.77s-.06.02-.07.06c0,0,0,0,0,0v1.96s.03.06.06.06c0,0,0,0,0,0"/>
        <path id="_패스_339" data-name="패스 339" class="cls-3" d="M79.22,30.16h-.2v1.95h-1.21v.03c-.01.12-.11.21-.23.21-.12,0-.22-.09-.23-.21v-.03h-1.21v-1.95h-.2s-.06.03-.06.06v2.07s.03.05.06.06h1.2c.09.16.26.25.44.25.18,0,.34-.1.43-.25h1.21s.06-.03.06-.06v-2.07s-.03-.06-.06-.06"/>
        <path id="_패스_340" data-name="패스 340" class="cls-3" d="M92.12,31.69h-.79s-.07.02-.06.07l.25,1.65c.01.07.07.11.14.11h.14c.07,0,.13-.05.14-.11l.26-1.65s-.02-.07-.06-.07c0,0,0,0-.01,0"/>
        <path id="_패스_341" data-name="패스 341" class="cls-3" d="M92.24,30.97c.2-.17.67-.7.63-.98-.05-.32-.94-.77-.99-1.12-.01-.19.03-.37.11-.54.01-.03-.02-.04-.06,0-.01.01-.73.55-.74.91.02.19.12.36.28.46.17.11.33.24.48.37.07.07.12.15.16.24.07.2-.13.52-.25.67h-.28c.13-.15.23-.32.28-.51.12-.44-.99-.55-.82-1.22,0-.02-.03-.03-.05-.02,0,0-.44.42-.44.72,0,.25.51.47.75.82.03.07.03.15,0,.21h-.46s-.1-.02-.06.09l.12.38s.06.06.1.06h1.45s.08-.02.1-.06l.13-.39c.03-.09-.07-.08-.07-.08h-.37Z"/>
        <path id="_패스_342" data-name="패스 342" class="cls-3" d="M82.72,44.08c-.08.06-.46.3-.46.31-.02,0-.03.03-.03.05,0,.04.02.05.04.05h.04s.06-.03.06-.03l.14-.06.03.04v1.03c-.01.06-.02.07-.06.08h-.15s-.05.03-.05.06c0,0,0,0,0,0,0,.02.01.04.07.04h.68s.06-.03.06-.04c0-.03-.02-.05-.04-.05h-.13s-.05-.04-.05-.09v-.44s-.01-.37-.01-.37v-.5s.01-.03.01-.03c0-.07-.04-.07-.04-.07l-.08.03Z"/>
        <path id="_패스_343" data-name="패스 343" class="cls-3" d="M83.6,45.25c0-.15.07-.28.2-.36.17.1.31.18.31.37.01.14-.09.26-.23.27,0,0-.02,0-.03,0-.14,0-.26-.12-.26-.27,0,0,0,0,0-.01M83.39,44.43c0,.17.11.31.27.38-.2.07-.33.24-.35.45,0,.26.21.42.53.42.27.04.53-.16.56-.43,0-.01,0-.03,0-.04-.02-.2-.15-.38-.34-.45.16-.06.26-.2.27-.37,0-.21-.17-.34-.44-.34-.38,0-.51.24-.51.39M83.66,44.4c0-.11.09-.2.2-.2,0,0,0,0,.01,0,.11,0,.2.08.2.18,0,0,0,.02,0,.03,0,.12-.06.23-.17.27-.17-.11-.24-.18-.24-.28"/>
        <path id="_패스_344" data-name="패스 344" class="cls-3" d="M84.98,45.25c0-.15.08-.28.21-.36.17.1.31.18.31.37,0,.14-.09.26-.23.27,0,0-.02,0-.02,0-.15,0-.26-.13-.26-.27,0,0,0,0,0,0M84.78,44.44c0,.16.11.31.26.38-.19.07-.33.24-.34.45,0,.26.21.42.53.42.27.03.52-.16.56-.44,0-.01,0-.02,0-.03-.02-.2-.15-.37-.33-.45.15-.06.25-.2.26-.37,0-.21-.17-.34-.43-.34-.37,0-.51.24-.51.39M85.04,44.4c0-.11.09-.2.2-.2,0,0,.01,0,.02,0,.11,0,.19.09.19.2,0,0,0,.01,0,.02,0,.12-.06.22-.17.27-.18-.11-.24-.18-.24-.28"/>
        <path id="_패스_345" data-name="패스 345" class="cls-3" d="M86.91,44.07h-.13s-.49.01-.49.01c-.05,0-.07.03-.07.05l-.05.53s.02.07.06.07c0,0,0,0,0,0,.14.02.49.13.49.45.02.16-.1.31-.26.33-.01,0-.02,0-.04,0-.17,0-.25-.08-.25-.24,0-.06-.03-.06-.03-.06-.03,0-.06.02-.07.05v.24s0,.03,0,.03c0,.04.01.09.05.11h0c.06.02.13.04.2.03.34.04.64-.2.68-.53,0-.02,0-.04,0-.06,0-.34-.34-.52-.66-.58,0-.06,0-.13.02-.19h.34c.15,0,.15.04.15.08,0,.02.01.04.04.05.03,0,.05,0,.06-.04l.03-.26s0-.07-.05-.07h-.03Z"/>
        <path id="_패스_346" data-name="패스 346" class="cls-3" d="M78.05,43.56c.5.59,1.05,1.14,1.63,1.64l5.02-5.04,5.02,5.04c.58-.51,1.13-1.06,1.64-1.64l-6.66-6.67-6.66,6.67Z"/>
        <path id="_패스_347" data-name="패스 347" class="cls-3" d="M84.7,35.43c-3.35,0-6.7.3-9.99.91.03.19.06.39.1.58,6.54-1.2,13.25-1.2,19.79,0,.04-.19.08-.39.1-.58-3.3-.61-6.65-.91-10-.91"/>
        <path id="_패스_348" data-name="패스 348" class="cls-3" d="M88.77,30.28c0-2.25-1.81-4.07-4.06-4.07s-4.07,1.81-4.07,4.06,1.81,4.07,4.06,4.07c0,0,0,0,0,0,2.24,0,4.06-1.82,4.07-4.06M84.7,32.36c-1.15,0-2.08-.93-2.08-2.08s.93-2.08,2.08-2.08,2.08.93,2.08,2.08c0,0,0,0,0,0,0,1.15-.93,2.08-2.08,2.08"/>
        <path id="_패스_349" data-name="패스 349" class="cls-1" d="M120.58,34.01c.51.36,1.01.75,1.47,1.17.74.63,1.41,1.23,2.03,1.86.57.55,1.08,1.16,1.54,1.8l-2.49,3.29c-.49-.77-1.03-1.5-1.62-2.2-.69-.86-1.31-1.6-1.85-2.19-.36-.39-.74-.76-1.14-1.11-.39-.37-.81-.71-1.25-1.02-.78,1.11-1.65,2.16-2.58,3.15-.95,1-2.01,1.88-3.17,2.61l-1.98-1.97c1.14-1.05,2.18-2.2,3.12-3.44,1.01-1.3,1.84-2.74,2.46-4.27.44-1.09.82-2.2,1.13-3.34.32-1.11.49-2.25.5-3.4.11-.71-.06-1.43-.46-2.02-.23-.31-.56-.52-.93-.61v-.65h6.46c.03,2.14-.24,4.27-.81,6.33-.5,1.73-1.2,3.4-2.08,4.98.56.31,1.11.66,1.64,1.02M131.8,20.99v27.87h-4.18v-16.76h-4.42v-3.44h4.42v-5.2c0-.44-.1-.88-.3-1.28-.2-.37-.44-.56-.72-.56v-.64h5.2ZM138.12,48.86h-4.48v-27.87h4.48v27.87Z"/>
        <path id="_패스_350" data-name="패스 350" class="cls-1" d="M143.01,43.02h26.26v3.52h-26.26v-3.52ZM145.47,39.24v-14.99c0-.42-.09-.83-.28-1.2-.19-.38-.42-.56-.72-.56v-.65h5.52v5.51h12.33v-5.51h4.46v17.4h-21.31ZM162.32,30.71h-12.33v5.03h12.33v-5.03Z"/>
        <path id="_패스_351" data-name="패스 351" class="cls-1" d="M174.93,38.04v-7.41c0-.43-.1-.84-.29-1.23-.19-.39-.43-.6-.72-.6v-.6h11.58v-2.97h-10.7v-3.53h15.18v9.82h-10.58v3h13v3.52h-17.47ZM178.09,41.17c-.14-.32-.43-.55-.78-.61v-.63h5.49v5.48h16.82v3.48h-21.3v-6.82c-.01-.32-.09-.63-.24-.91M198.98,30.25v10.92h-4.48v-17.74c0-.44-.09-.88-.28-1.29-.11-.31-.4-.52-.73-.54v-.64h5.5v5.78h4.39v3.51h-4.39Z"/>
        <path id="_패스_352" data-name="패스 352" class="cls-1" d="M206.14,43.03h26.26v3.51h-26.26v-3.51ZM214.23,35.23c-1.71,1.29-3.56,2.39-5.51,3.28l-1.86-2.02c2.43-1.4,4.6-3.22,6.41-5.36,1.65-1.86,2.96-4,3.88-6.31.24-.57.2-1.22-.09-1.77-.3-.55-.64-.83-1.05-.83v-.62h7.55c-.25,1.23-.63,2.43-1.13,3.59-.51,1.18-1.14,2.32-1.87,3.38,2.11.72,4.13,1.67,6.03,2.84,1.86,1.12,3.55,2.48,5.04,4.05l-3.5,3.12c-1.15-1.74-2.59-3.27-4.24-4.53-1.58-1.21-3.26-2.27-5.04-3.17-1.37,1.62-2.92,3.08-4.62,4.35"/>
        <path id="_패스_353" data-name="패스 353" class="cls-1" d="M257.93,24.86v-1.41c0-.44-.09-.89-.29-1.28-.11-.31-.4-.53-.73-.55v-.63h5.5v17.17h-4.48v-3.44h-5.21v1.37h-15.62v-11.96c0-.43-.1-.86-.3-1.25-.2-.37-.44-.56-.71-.56v-.64h5.48v4.03h6.64v-4.03h4.51v3.18h5.21ZM259.9,40.02c2.16,1.07,3.23,2.38,3.23,3.92,0,1.54-1.08,2.84-3.23,3.91-2.46,1.14-5.14,1.7-7.85,1.62-2.69.07-5.36-.48-7.8-1.62-2.16-1.07-3.24-2.37-3.24-3.91s1.08-2.84,3.24-3.92c2.44-1.13,5.11-1.69,7.8-1.61,2.71-.08,5.39.48,7.85,1.61M248.21,29.18h-6.64v3.4h6.64v-3.4ZM256.47,45.65c1.2-.5,1.8-1.07,1.8-1.71s-.59-1.21-1.8-1.7c-1.41-.53-2.92-.78-4.42-.74-1.49-.05-2.97.2-4.37.74-1.19.49-1.78,1.05-1.78,1.7s.59,1.22,1.78,1.71c1.4.51,2.88.76,4.37.72,1.51.04,3.01-.2,4.42-.72M252.72,31.18h5.21v-2.78h-5.21v2.78Z"/>
        <path id="_패스_354" data-name="패스 354" class="cls-1" d="M278.18,37.03h-9.85v-3.5h19.79v3.5h-5.5v5.37h-4.45v-5.37ZM271.53,30.77c-1.49-.9-2.42-2.5-2.47-4.24.04-1.74.97-3.34,2.46-4.24,1.75-1.19,3.82-1.8,5.94-1.75,2.11-.06,4.18.55,5.91,1.75,1.49.9,2.42,2.5,2.45,4.24-.04,1.74-.96,3.34-2.45,4.24-1.73,1.2-3.8,1.81-5.91,1.75-2.11.05-4.19-.56-5.93-1.75M295.29,45.45v3.48h-22.94v-6.6c0-.45-.1-.9-.33-1.29-.21-.36-.44-.56-.69-.56v-.62h5.49v5.58h18.47ZM274.71,24.45c-1.15.72-1.5,2.23-.78,3.38.2.32.47.59.78.78,1.65,1.17,3.85,1.17,5.5,0,1.15-.74,1.48-2.28.74-3.43-.19-.3-.44-.55-.74-.74-1.65-1.15-3.85-1.15-5.5,0M290.37,31.95h-4.06v-3.44h4.06v-5.08c0-.45-.09-.89-.3-1.29-.2-.37-.44-.55-.72-.55v-.63h5.49v21.63h-4.47v-10.64Z"/>
      </g>
    </g>
  </g>
</svg>