<?xml version="1.0" encoding="UTF-8"?>
<svg id="_레이어_2" data-name="레이어 2" xmlns="http://www.w3.org/2000/svg" viewBox="0 0 360 70">
  <defs>
    <style>
      .cls-1 {
        fill: none;
      }

      .cls-1, .cls-2 {
        stroke-width: 0px;
      }

      .cls-2 {
        fill: #003487;
      }
    </style>
  </defs>
  <g id="_레이어_1-2" data-name="레이어 1">
    <g>
      <rect class="cls-1" width="360" height="70"/>
      <g id="logo">
        <path id="_패스_355" data-name="패스 355" class="cls-2" d="M166.72,23.47c-1.8-10.34-32.9-13.58-69.45-7.21-13.69,2.26-27.09,5.97-40,11.05,1.32-.09,2.62.33,3.64,1.16.6.64.92,1.51.87,2.39v1.02h-3.59v-.9c.05-.63-.42-1.17-1.04-1.22-.07,0-.14,0-.21,0-.58-.07-1.12.33-1.23.91-.04.24-.03.48.02.71.39,1.57,5.7,2.54,6.29,5.44.13.76.14,1.54.02,2.31-.34,2.34-2.38,3.24-4.99,3.24-3.64,0-5.12-1.73-5.12-4.11v-1.12h3.84v1.4c0,.67.52,1.22,1.19,1.23.06,0,.11,0,.17,0,.61.09,1.19-.31,1.33-.91.08-.33.07-.68-.03-1.01-.71-1.79-5.68-2.62-6.29-5.5-.14-.62-.15-1.27-.03-1.89.06-.35.16-.68.32-1-11.98,5.6-18.98,11.76-18.05,17.08,1.81,10.35,32.9,13.58,69.45,7.22,16.07-2.8,30.51-6.99,41.5-11.68-.16.01-.31.02-.47.02-2.51,0-4.75-.94-4.97-3.49-.03-.31-.05-.61-.05-.92v-5.89c0-.25.03-.69.06-.93.3-2.47,2.25-3.49,4.96-3.49,2.09,0,4.66.6,4.95,3.49.04.36.03.75.03.87v.56h-3.62v-.83c0-.17-.02-.35-.04-.52-.24-.75-1.04-1.16-1.78-.92-.44.14-.78.48-.92.92-.04.22-.05.43-.05.65v6.39c0,.18,0,.35.03.53.27.76,1.11,1.16,1.87.89.42-.15.75-.48.89-.89.03-.17.04-.35.03-.53v-1.98h-1.42v-2.13h5.04v3.79c0,.31-.01.62-.04.92-.05.62-.26,1.21-.6,1.72,11.66-5.53,18.45-11.6,17.54-16.84M71.93,41.81l-1.83-12.46h-.07l-1.88,12.46h-3.87l2.6-14.07h6.31l2.58,14.07h-3.85ZM90.53,41.81l-.09-12.22h-.06l-2.27,12.22h-3.63l-2.26-12.22h-.07l-.08,12.22h-3.6l.31-14.07h5.79l1.68,10.46h.08l1.69-10.46h5.78l.3,14.07h-3.57ZM107.45,39.09c-.39,2.73-3.06,3.2-4.94,3.2-3.14,0-5.07-1.34-5.07-4.06v-1.12h3.8v1.39c0,.66.52,1.21,1.18,1.22.06,0,.11,0,.17,0,.6.09,1.17-.3,1.31-.9.09-.33.08-.68-.03-1-.7-1.75-5.63-2.6-6.23-5.44-.13-.62-.14-1.26-.03-1.89.42-2.57,2.89-3.11,4.87-3.11,1.39-.13,2.77.28,3.85,1.16.6.64.91,1.49.87,2.36v1.02h-3.55v-.9c.05-.62-.42-1.16-1.04-1.21-.07,0-.14,0-.21,0-.58-.07-1.12.32-1.23.9-.04.23-.03.47.02.7.39,1.56,5.66,2.51,6.24,5.38.13.76.13,1.53.01,2.29M120.6,37.8c0,.26-.02.79-.04.93-.22,2.31-1.88,3.49-4.92,3.49s-4.71-1.18-4.93-3.49c0-.14-.03-.67-.03-.93v-10.07h3.63v10.39c0,.17,0,.35.04.52.11.61.67,1.04,1.29.98.62.05,1.19-.37,1.31-.98.02-.17.03-.35.02-.52v-10.39h3.63v10.07ZM136.25,41.66h-5.05l-3.39-11.14h-.06l.19,11.15h-3.52v-13.93h5.26l3.14,10.71h.07l-.18-10.71h3.54v13.92Z"/>
        <path id="_패스_356" data-name="패스 356" class="cls-2" d="M321.96,37.69v-16.05h3.54v21.68h-3.53v-2.76h-4.91v-2.87h4.9Z"/>
        <path id="_패스_357" data-name="패스 357" class="cls-2" d="M308.01,39.11v9.47h17.72v-3h-14.3v-6.47h-3.43"/>
        <path id="_패스_358" data-name="패스 358" class="cls-2" d="M320.75,33.48h-15.33v3.15h6.87v5.17h3.13v-5.17h5.33v-3.16Z"/>
        <path id="_패스_359" data-name="패스 359" class="cls-2" d="M313.53,29.99c1.97.1,3.65-1.4,3.77-3.36-.23-2.08-2.11-3.58-4.19-3.34-1.76.2-3.15,1.58-3.34,3.34.12,1.96,1.8,3.46,3.76,3.36M306.58,26.63c0-3.42,3.11-6.21,6.94-6.21s6.94,2.78,6.94,6.21-3.11,6.19-6.94,6.19-6.94-2.78-6.94-6.19"/>
        <rect id="_사각형_31" data-name="사각형 31" class="cls-2" x="260.98" y="32.56" width="20.69" height="2.78"/>
        <path id="_패스_360" data-name="패스 360" class="cls-2" d="M262.58,37.1v2.69h14.14v1.79h-14.14v7.06h17.69v-2.68h-14.39v-1.71h14.14v-7.15h-17.44Z"/>
        <path id="_패스_361" data-name="패스 361" class="cls-2" d="M254.93,33.57h-5.12v-2.84h5.12v-9.2h3.5v26.83h-3.5v-14.8Z"/>
        <path id="_패스_362" data-name="패스 362" class="cls-2" d="M207.77,21.57v14.24h3.44v-5.31h3.04v-2.91h-2.98v-6.01h-3.5Z"/>
        <path id="_패스_363" data-name="패스 363" class="cls-2" d="M194.83,36.98h16.44v11.65h-16.44v-11.65ZM207.91,39.83h-9.72v5.96h9.72v-5.96Z"/>
        <path id="_패스_364" data-name="패스 364" class="cls-2" d="M199.52,22.08s-.45,7.7,5.79,10.9l-1.8,2.48s-4.58-3.02-5.61-6.32c-1.05,3.29-5.61,6.32-5.61,6.32l-1.79-2.48c6.23-3.2,5.78-10.9,5.78-10.9h3.23Z"/>
        <path id="_패스_365" data-name="패스 365" class="cls-2" d="M234.97,21.57v14.24h-3.44v-6.54h-4.46v-2.91h4.4v-4.79h3.5Z"/>
        <path id="_패스_366" data-name="패스 366" class="cls-2" d="M226.18,49.57c-5.11,0-9.25-3.12-9.25-6.97s4.14-6.95,9.25-6.95,9.24,3.12,9.24,6.95-4.13,6.97-9.24,6.97M231.92,42.61c0-2.15-2.57-3.88-5.75-3.88s-5.75,1.73-5.75,3.88,2.58,3.89,5.75,3.89,5.75-1.74,5.75-3.89"/>
        <path id="_패스_367" data-name="패스 367" class="cls-2" d="M303.49,21.47v14.96h-3.44v-9.32h-4.46v-2.91h4.4v-2.74h3.5Z"/>
        <rect id="_사각형_32" data-name="사각형 32" class="cls-2" x="295.99" y="29.55" width="4.34" height="2.91"/>
        <path id="_패스_368" data-name="패스 368" class="cls-2" d="M294.71,49.47c-5.11,0-9.25-3-9.25-6.69s4.15-6.69,9.25-6.69,9.25,3,9.25,6.69-4.14,6.69-9.25,6.69M300.46,42.78c0-2.05-2.58-3.71-5.75-3.71s-5.76,1.66-5.76,3.71,2.58,3.71,5.76,3.71,5.75-1.66,5.75-3.71"/>
        <path id="_패스_369" data-name="패스 369" class="cls-2" d="M221.16,29.15c-1.03,3.3-5.22,6.06-5.22,6.06l-1.79-2.48c5.86-2.94,5.39-10.65,5.39-10.65h3.24s-.47,7.7,5.39,10.65l-1.8,2.48s-4.18-2.77-5.22-6.06"/>
        <path id="_패스_370" data-name="패스 370" class="cls-2" d="M271.37,20.52c-5.11,0-9.16,2.33-9.16,5.74s4.05,5.49,9.16,5.49,9.16-2.07,9.16-5.49-4.06-5.74-9.16-5.74M271.44,29.04c-2.57,0-5.85-.89-5.85-2.88s3.28-2.88,5.85-2.88,5.85.89,5.85,2.88-3.29,2.88-5.85,2.88"/>
        <rect id="_사각형_33" data-name="사각형 33" class="cls-2" x="269.44" y="34.78" width="3.46" height="2.99"/>
        <path id="_패스_371" data-name="패스 371" class="cls-2" d="M244.62,36.08c1.18,3.02,3.09,5.71,5.55,7.84l2.03-2.21c-2.31-1.81-4.01-4.27-4.88-7.07-1.17-3.48-1.01-7.84-1.01-9.21v-3.29h-3.49v3.29c0,1.38.28,5.73-.88,9.21-.97,2.82-2.76,5.28-5.13,7.07l2.16,2.21c2.51-2.1,4.46-4.79,5.67-7.84"/>
        <path id="_패스_372" data-name="패스 372" class="cls-2" d="M287.26,28.45h5.75v3.8h-5.75v-3.8ZM293.01,21.64v3.98h-5.75v-3.98h-3.24v13.45h12.23v-13.45h-3.24Z"/>
      </g>
    </g>
  </g>
</svg>