<?xml version="1.0" encoding="UTF-8"?>
<svg id="_레이어_2" data-name="레이어 2" xmlns="http://www.w3.org/2000/svg" viewBox="0 0 360 70">
  <defs>
    <style>
      .cls-1 {
        fill: #163348;
      }

      .cls-1, .cls-2, .cls-3, .cls-4, .cls-5, .cls-6, .cls-7, .cls-8 {
        stroke-width: 0px;
      }

      .cls-2 {
        fill: #e47627;
      }

      .cls-3 {
        fill: #eec600;
      }

      .cls-4 {
        fill: none;
      }

      .cls-5 {
        fill: #fff;
      }

      .cls-6 {
        fill: #d16fa7;
      }

      .cls-7 {
        fill: #6fb92c;
      }

      .cls-8 {
        fill: #2fa5cd;
      }
    </style>
  </defs>
  <g id="_레이어_1-2" data-name="레이어 1">
    <g>
      <rect class="cls-4" width="360" height="70"/>
      <g>
        <g>
          <g>
            <path class="cls-1" d="M104.84,32.69c.59.55,1.29.99,2.1,1.31.8.32,1.67.48,2.6.48s1.77-.16,2.58-.48c.81-.32,1.52-.76,2.14-1.31.58-.54,1.04-1.18,1.39-1.93.35-.75.52-1.54.52-2.38s-.17-1.66-.52-2.41c-.35-.75-.81-1.4-1.39-1.95-.61-.54-1.32-.96-2.14-1.28-.81-.32-1.67-.48-2.58-.48s-1.79.16-2.6.48c-.8.32-1.5.75-2.1,1.28-.61.55-1.09,1.2-1.44,1.95-.35.75-.52,1.55-.52,2.41s.17,1.63.52,2.38c.35.75.83,1.39,1.44,1.93ZM107.47,26.4c.55-.54,1.24-.8,2.06-.8s1.49.27,2.04.8c.56.54.84,1.2.84,1.98s-.28,1.42-.84,1.95c-.56.54-1.24.8-2.04.8s-1.51-.27-2.06-.8c-.55-.54-.83-1.19-.83-1.95s.28-1.44.83-1.98Z"/>
            <rect class="cls-1" x="99.75" y="35.74" width="19.53" height="3.4"/>
            <polygon class="cls-1" points="106.33 40.21 102.53 40.21 102.53 48.08 117.16 48.08 117.16 44.84 106.33 44.84 106.33 40.21"/>
          </g>
          <g>
            <path class="cls-1" d="M139.23,38.66c-.54-.48-1.17-.87-1.89-1.16-.72-.29-1.49-.44-2.31-.44s-1.56.15-2.28.44c-.72.29-1.34.68-1.86,1.16-.56.5-.99,1.08-1.3,1.75-.31.67-.46,1.38-.46,2.13s.15,1.49.46,2.15c.31.67.74,1.24,1.3,1.73.52.5,1.14.89,1.86,1.18.72.29,1.48.43,2.28.43s1.59-.14,2.31-.43c.72-.29,1.35-.68,1.89-1.18.52-.48.94-1.06,1.25-1.73.31-.67.46-1.39.46-2.15s-.15-1.46-.46-2.13c-.31-.67-.72-1.25-1.25-1.75ZM136.71,44.09c-.45.43-1.01.64-1.68.64s-1.2-.21-1.66-.64c-.46-.43-.69-.95-.69-1.55s.23-1.1.69-1.53c.46-.43,1.02-.64,1.66-.64s1.22.21,1.68.64c.45.43.68.94.68,1.53s-.23,1.12-.68,1.55Z"/>
            <polygon class="cls-1" points="134.82 33.95 129.52 25.55 129.52 22.26 125.89 22.26 125.89 25.52 120.59 33.95 123.63 36.2 127.69 29.11 131.76 36.2 134.82 33.95"/>
            <polygon class="cls-1" points="137.76 27.07 133.17 27.07 133.17 30.55 137.76 30.55 137.76 36.62 141.59 36.62 141.59 22.26 137.76 22.26 137.76 27.07"/>
          </g>
          <path class="cls-1" d="M155.9,33.9h5.58v-11.64h-14.94v11.64h5.53v2.76h-7.84v3.48h19.5v-3.48h-7.84v-2.76ZM150.24,30.42v-4.68h7.52v4.68h-7.52Z"/>
          <g>
            <path class="cls-1" d="M174.85,34.91c.79-.34,1.47-.81,2.04-1.42.58-.57,1.04-1.26,1.38-2.06.34-.8.51-1.66.51-2.57s-.17-1.79-.51-2.6c-.34-.8-.8-1.5-1.38-2.09-.58-.59-1.26-1.06-2.04-1.4-.79-.35-1.63-.52-2.54-.52s-1.73.17-2.52.52c-.79.35-1.46.82-2.02,1.4-.59.59-1.06,1.28-1.4,2.09s-.51,1.67-.51,2.6.17,1.77.51,2.57c.34.8.81,1.49,1.4,2.06.56.61,1.23,1.08,2.02,1.42.79.34,1.63.51,2.52.51s1.76-.17,2.54-.51ZM170.29,31.35c-.26-.29-.47-.63-.63-1.03s-.24-.83-.24-1.3c0-.95.28-1.73.84-2.35.56-.62,1.24-.94,2.04-.94s1.51.31,2.06.94c.55.62.83,1.41.83,2.35,0,.46-.07.9-.22,1.3-.15.4-.35.75-.62,1.03-.26.32-.57.57-.92.74-.35.17-.73.25-1.13.25s-.75-.08-1.1-.25c-.35-.17-.66-.41-.92-.74Z"/>
            <polygon class="cls-1" points="185.07 22.26 181.22 22.26 181.22 38.26 185.07 38.26 185.07 31.7 188.8 31.7 188.8 28.17 185.07 28.17 185.07 22.26"/>
            <polygon class="cls-1" points="175.14 37.88 171.31 37.88 171.31 46.42 184.73 46.42 184.73 42.99 175.14 42.99 175.14 37.88"/>
          </g>
          <g>
            <rect class="cls-1" x="230.68" y="22.26" width="3.75" height="22.05"/>
            <path class="cls-1" d="M217.11,32.96c.56.57,1.22,1.02,1.99,1.35.77.33,1.59.5,2.46.5s1.69-.16,2.45-.5c.76-.33,1.43-.78,2.01-1.35.56-.55,1.01-1.21,1.35-1.97.34-.76.51-1.57.51-2.45s-.17-1.69-.51-2.45c-.34-.76-.79-1.42-1.35-1.99-.58-.57-1.25-1.02-2.01-1.35-.76-.33-1.58-.49-2.45-.49s-1.7.16-2.46.49c-.77.33-1.43.78-1.99,1.35-.59.57-1.06,1.24-1.39,1.99-.33.76-.5,1.57-.5,2.45s.17,1.69.5,2.45c.33.76.79,1.41,1.39,1.97ZM219.66,26.55c.52-.54,1.15-.82,1.9-.82.35,0,.69.07,1.01.21.32.14.61.34.85.59.24.27.44.58.58.92.14.35.21.71.21,1.08s-.07.74-.21,1.08c-.14.35-.33.65-.58.9-.24.27-.53.47-.85.6-.32.13-.66.2-1.01.2-.75,0-1.39-.27-1.9-.8-.52-.54-.77-1.19-.77-1.98s.26-1.45.77-1.99Z"/>
            <rect class="cls-1" x="214.54" y="37.11" width="15.15" height="3.4"/>
          </g>
          <g>
            <polygon class="cls-1" points="246.62 39.94 246.62 36.68 252.52 36.68 252.52 33.55 237.68 33.55 237.68 36.68 242.79 36.68 242.79 39.94 246.62 39.94"/>
            <path class="cls-1" d="M240.72,31.54c.52.5,1.15.89,1.87,1.16.72.28,1.5.41,2.32.41s1.62-.14,2.33-.41c.72-.28,1.35-.66,1.91-1.16.52-.48.94-1.05,1.25-1.71.31-.66.46-1.36.46-2.11s-.15-1.48-.46-2.15c-.31-.67-.72-1.24-1.25-1.73-.56-.5-1.2-.89-1.91-1.16-.72-.28-1.49-.41-2.33-.41s-1.59.14-2.32.41c-.73.28-1.35.66-1.87,1.16-.54.48-.97,1.06-1.27,1.73-.31.67-.46,1.39-.46,2.15s.15,1.45.46,2.11c.31.66.73,1.23,1.27,1.71ZM243.17,26.08c.46-.41,1.04-.62,1.74-.62s1.28.21,1.76.62c.47.41.71.95.71,1.63,0,.64-.24,1.17-.71,1.58-.47.41-1.06.62-1.76.62s-1.28-.21-1.74-.62c-.46-.41-.69-.94-.69-1.58,0-.68.23-1.22.69-1.63Z"/>
            <polygon class="cls-1" points="247.33 40.61 243.48 40.61 243.48 47.81 256.92 47.81 256.92 44.38 247.33 44.38 247.33 40.61"/>
            <polygon class="cls-1" points="253.75 37.11 250.5 37.11 250.5 40.21 257.58 40.21 257.58 23.03 253.75 23.03 253.75 37.11"/>
          </g>
          <g>
            <polygon class="cls-1" points="209.16 22.26 205.34 22.26 205.34 44.3 209.16 44.3 209.16 33.92 212.91 33.92 212.91 30.36 209.16 30.36 209.16 22.26"/>
            <polygon class="cls-1" points="197.5 31.01 193.67 31.01 193.67 38.52 190.42 38.52 190.42 42 204.44 42 204.44 38.52 197.5 38.52 197.5 31.01"/>
            <polygon class="cls-1" points="199.54 36.6 203.24 36.6 203.24 22.87 191.29 22.87 191.29 26.35 199.54 26.35 199.54 36.6"/>
          </g>
          <g>
            <path class="cls-1" d="M84.39,26.8h-4.69v-4.55h-3.62v13.06h11.93v-13.06h-3.62v4.55ZM84.39,32.1h-4.69v-2.09h4.69v2.09Z"/>
            <polygon class="cls-1" points="95.03 22.26 91.21 22.26 91.21 34.97 95.03 34.97 95.03 31.03 98.78 31.03 98.78 27.5 95.03 27.5 95.03 22.26"/>
            <polygon class="cls-1" points="81.23 39.32 84.18 39.32 84.18 41.09 81.23 41.09 81.23 47.76 87.69 47.76 87.69 45.17 84.62 45.17 84.62 43.4 87.69 43.4 87.69 36.46 81.23 36.46 81.23 39.32"/>
            <polygon class="cls-1" points="88.59 39.83 90.76 39.83 90.76 47.76 94.38 47.76 94.38 36.46 88.59 36.46 88.59 39.83"/>
          </g>
        </g>
        <g>
          <g>
            <path class="cls-6" d="M45.28,27.13c0,.92-.75,1.67-1.67,1.67h0c-.92,0-1.67-.75-1.67-1.67v-4.13c0-.92.75-1.67,1.67-1.67h0c.92,0,1.67.75,1.67,1.67v4.13Z"/>
            <path class="cls-3" d="M35.23,27.9c.39.84.02,1.83-.81,2.22h0c-.84.39-1.83.03-2.22-.81l-1.74-3.74c-.39-.84-.03-1.83.81-2.22h0c.84-.39,1.83-.03,2.22.81l1.74,3.74Z"/>
            <path class="cls-2" d="M26.21,31.8c.69.61.76,1.67.15,2.36h0c-.61.69-1.67.76-2.36.15l-3.1-2.73c-.69-.61-.76-1.67-.15-2.36h0c.61-.69,1.67-.76,2.36-.15l3.1,2.73Z"/>
          </g>
          <g>
            <path class="cls-8" d="M51.97,27.9c-.39.84-.03,1.83.81,2.22h0c.84.39,1.83.03,2.22-.81l1.74-3.74c.39-.84.02-1.83-.81-2.22h0c-.84-.39-1.83-.03-2.22.81l-1.74,3.74Z"/>
            <path class="cls-7" d="M60.99,31.8c-.69.61-.76,1.67-.15,2.36h0c.61.69,1.67.76,2.36.15l3.1-2.73c.69-.61.76-1.67.15-2.36h0c-.61-.69-1.67-.76-2.36-.15l-3.1,2.73Z"/>
          </g>
          <path class="cls-1" d="M43.6,34.88c-3.9,0-7.06,3.16-7.06,7.06s3.16,7.06,7.06,7.06,7.06-3.16,7.06-7.06-3.16-7.06-7.06-7.06ZM43.6,44.81c-1.59,0-2.87-1.29-2.87-2.87s1.29-2.87,2.87-2.87,2.87,1.29,2.87,2.87-1.29,2.87-2.87,2.87Z"/>
          <path class="cls-1" d="M62.28,40.71c-.06-.15-.13-.29-.2-.41-.25-.29-.5-.57-.76-.84-4.32-4.5-10.65-7.34-17.71-7.34h-.02c-7.06,0-13.39,2.85-17.71,7.34-.26.27-.52.56-.76.84-.07.13-.14.27-.2.41-.05.18-.08.37-.08.58,0,1.18.95,2.13,2.13,2.13.36,0,.69-.09.99-.24.11-.07.23-.16.35-.26.17-.2.35-.41.53-.61,3.54-3.84,8.84-6.28,14.77-6.29,5.93,0,11.22,2.45,14.77,6.29.18.2.36.4.53.61.12.1.24.19.35.26.3.16.63.24.99.24,1.18,0,2.13-.95,2.13-2.13,0-.2-.03-.39-.08-.58Z"/>
        </g>
        <g>
          <path class="cls-1" d="M339.66,34.83c0,7.64-6.05,13.83-13.5,13.83h-46.13c-7.46,0-13.5-6.19-13.5-13.83h0c0-7.64,6.05-13.83,13.5-13.83h46.13c7.46,0,13.5,6.19,13.5,13.83h0Z"/>
          <g>
            <g>
              <path class="cls-5" d="M290.67,25.61h-2.79v2.35h-5.56v-2.35h-2.77v8.33h11.12v-8.33ZM287.88,31.71h-5.56v-1.55h5.56v1.55Z"/>
              <polygon class="cls-5" points="277.83 38.06 283.69 38.06 283.69 41.82 286.54 41.82 286.54 38.06 292.39 38.06 292.39 35.47 277.83 35.47 277.83 38.06"/>
            </g>
            <g>
              <polygon class="cls-5" points="308.16 25.61 305.31 25.61 305.31 37.52 308.16 37.52 308.16 32.64 310.93 32.64 310.93 30.01 308.16 30.01 308.16 25.61"/>
              <polygon class="cls-5" points="300.76 37.7 297.91 37.7 297.91 44.06 307.9 44.06 307.9 41.51 300.76 41.51 300.76 37.7"/>
              <polygon class="cls-5" points="301.66 36.21 303.94 34.53 300 28.12 300 25.61 297.29 25.61 297.29 28.1 293.35 34.53 295.61 36.21 298.63 30.69 301.66 36.21"/>
            </g>
            <g>
              <path class="cls-5" d="M316.68,44.06h9.97v-6.67h-9.97v6.67ZM319.45,39.57h4.41v2.29h-4.41v-2.29Z"/>
              <polygon class="cls-5" points="320.02 34.69 322.28 33.02 318.56 28.1 321.29 28.1 321.29 25.61 312.53 25.61 312.53 28.1 315.28 28.1 311.53 33.02 313.79 34.69 316.92 30.41 320.02 34.69"/>
              <polygon class="cls-5" points="324.29 25.61 324.29 28.52 321.09 28.52 321.09 31.11 324.29 31.11 324.29 36.31 327.14 36.31 327.14 25.61 324.29 25.61"/>
            </g>
          </g>
        </g>
      </g>
    </g>
  </g>
</svg>