<?xml version="1.0" encoding="UTF-8"?>
<svg id="_레이어_2" data-name="레이어 2" xmlns="http://www.w3.org/2000/svg" viewBox="0 0 360 70">
  <defs>
    <style>
      .cls-1 {
        fill: none;
      }

      .cls-1, .cls-2, .cls-3 {
        stroke-width: 0px;
      }

      .cls-2 {
        fill: #5e5552;
      }

      .cls-3 {
        fill: #00388d;
      }
    </style>
  </defs>
  <g id="_레이어_1-2" data-name="레이어 1">
    <g>
      <rect class="cls-1" width="360" height="70"/>
      <g id="logo">
        <path id="_패스_283" data-name="패스 283" class="cls-3" d="M118.11,14.44c-23.77-9.49-50.27-9.49-74.03,0-.74.36-1.09.69-1.09,1.52v38.09c0,.83.36,1.16,1.09,1.52,11.77,4.73,24.34,7.14,37.02,7.12,12.68.02,25.25-2.4,37.02-7.12.74-.36,1.09-.68,1.09-1.52V15.96c0-.83-.35-1.16-1.09-1.52M107.01,15.05c.23-1.2,1.39-1.99,2.6-1.75.06.01.12.03.18.04.32.08.61.24.86.45h.01s-.24.68-.24.68l-.03-.04c-.2-.23-.46-.39-.75-.47-.38-.12-.79-.07-1.13.13-.42.26-.72.68-.84,1.16-.15.47-.1.99.13,1.43.19.33.5.58.87.68.3.09.61.1.91.03l.05-.02-.15.7h-.03c-.32.04-.65,0-.96-.09-1.17-.3-1.87-1.49-1.58-2.65.02-.09.05-.19.09-.28M101.63,11.49v-.03l.64.13-.92,4.57-.64-.13.92-4.54ZM94.06,10.28v-.03s.65.09.65.09c0,0-.52,3.93-.53,3.99.06,0,1.72.23,1.72.23l-.09.63-2.36-.31.61-4.59ZM84.43,11.82c0-.69.28-1.35.77-1.84.38-.33.87-.5,1.38-.46,1.17.1,2.03,1.13,1.92,2.3,0,.07-.02.14-.03.21,0,.69-.27,1.35-.75,1.84-.81.67-1.99.6-2.73-.14-.43-.54-.63-1.22-.56-1.91M76.41,9.55s.06,1.87.06,1.93c.06,0,1.87-.06,1.92-.07,0-.06-.06-1.92-.06-1.92l.62-.02h.03l.16,4.66-.65.02s-.07-2.04-.07-2.09c-.06,0-1.86.06-1.92.07,0,.06.07,2.09.07,2.09l-.65.03-.16-4.65.66-.03ZM75.17,15.99c2.09-.13,4.1-.19,5.94-.19,8.83,0,21.37,1.42,29.12,4.16h-35.06v-3.97ZM75.17,22.09h36.88c0,.09.01.17.01.25v1.05h-32.85v8.99h15.12v1.3h-19.15v-11.58ZM81.33,28.94h30.72v1.31h-30.72v-1.31ZM112.05,33.67h-15.61v-1.3h15.61v1.3ZM81.33,25.51h30.72v1.3h-30.72v-1.3ZM94.32,35.8v8.16h-26.17v-1.3h21.63v-5.56h-21.63v-17.16h-16.1c5.59-1.96,13.64-3.25,21-3.81v19.67h21.27ZM70.47,9.96h.03l.07.64s-1.22.14-1.28.15c.01.06.45,3.99.45,3.99l-.65.08s-.44-3.94-.45-4l-1.28.15-.07-.64,3.18-.36ZM60.62,11.4l.63-.12h.02l2.62,4.24-.7.14s-.61-1.03-.63-1.06c-.04,0-1.91.36-1.95.37,0,.04-.2,1.22-.2,1.22l-.68.12.89-4.91ZM51.81,14.08c.28-.5.76-.87,1.32-1.01.31-.1.64-.12.96-.06h.02l.14.7h-.05c-.28-.1-.59-.11-.87-.02-.38.1-.71.35-.9.69-.23.44-.27.95-.12,1.43.15.87.97,1.46,1.84,1.31.04,0,.07-.01.11-.02.3-.08.57-.23.79-.45l.03-.04.23.67-.02.02c-.26.2-.55.34-.87.42-.55.17-1.14.12-1.65-.16-.58-.36-.99-.92-1.15-1.58-.2-.63-.13-1.31.17-1.89M50.17,22.34c0-.09,0-.17.01-.27h15.83v15.03h-15.84v-14.76ZM50.17,39.23h37.48v1.3h-21.64v5.55h30.43v-10.28h15.61v10.86c.02.52-.1,1.04-.36,1.5-.22.27-.5.49-.82.64-4.68,1.6-9.51,2.7-14.42,3.29v-4.71h-46.2c-.04-.24-.06-.48-.07-.72v-7.43ZM94.32,49.51v2.85c-4.38.53-8.79.81-13.21.83-8.29,0-19.86-1.26-27.67-3.69h40.88ZM49.9,55.55c-.4-.12-.73-.39-.92-.76-.22-.54-.21-1.15.03-1.68l.87-2.55v-.03s.63.21.63.21l-.86,2.5c-.19.4-.21.85-.08,1.27.11.21.3.37.53.43.22.09.47.08.68-.01.37-.24.63-.62.73-1.05l.86-2.49.62.21-.88,2.58c-.42,1.23-1.2,1.71-2.2,1.37M55.08,57.08s-.7-3.89-.73-4.07c-.06.19-1.03,3.57-1.03,3.57l-.63-.19,1.29-4.44v-.03s.83.24.83.24c0,0,.67,3.79.71,3.98.06-.19,1.01-3.48,1.01-3.48l.63.18-1.31,4.47-.77-.22ZM57.78,57.79l-.63-.16,1.13-4.49v-.03s.65.16.65.16l-1.15,4.52ZM60.1,58.34l-.55-4.84v-.04l.71.16s.37,4,.38,4.15c.08-.13,2.12-3.6,2.12-3.6l.67.15-2.56,4.21-.77-.18ZM66.29,55.45s-1.64-.29-1.7-.3c-.02.06-.21,1.21-.23,1.26l1.55.27-.11.63-1.55-.27c-.01.06-.25,1.38-.25,1.43.06.01,1.7.3,1.7.3l-.11.63-2.34-.41.8-4.56v-.03l2.34.41-.1.63ZM69.79,56.59c-.06.5-.46.89-.96.94.16.12.27.3.31.5l.55,1.96-.74-.09-.42-1.69c-.12-.45-.29-.48-.6-.52,0,0-.27-.03-.32-.04,0,.06-.27,2.03-.27,2.03l-.65-.09.63-4.59v-.03s1.04.15,1.04.15c.48.02.93.21,1.27.54.14.2.21.43.2.67,0,.09,0,.18-.02.27M71.94,57.43c.61.27.98.89.93,1.56-.03.74-.66,1.31-1.4,1.28-.09,0-.18-.02-.27-.04-.29-.04-.58-.13-.84-.28h-.02s.13-.67.13-.67l.03.02c.25.15.53.25.82.3.22.02.44-.04.61-.17.14-.12.22-.28.24-.47.04-.45-.29-.67-.68-.93-.56-.24-.92-.8-.88-1.42.04-.68.63-1.2,1.31-1.16.06,0,.11.01.17.02.3.03.6.12.87.25h.02s-.16.67-.16.67l-.03-.02c-.22-.14-.48-.23-.74-.26-.2-.03-.4.02-.56.13-.11.1-.18.24-.19.38-.04.36.26.57.62.8M74.39,60.42l-.65-.05.34-4.62v-.03l.65.04-.34,4.65ZM78.65,56.62s-1.23-.06-1.28-.06c-.01.06-.18,4.02-.18,4.02l-.65-.03s.18-3.95.18-4.01c-.06,0-1.29-.06-1.29-.06l.03-.61v-.03l3.22.15-.03.64ZM83.04,56.05s-1.61,2.66-1.62,2.65v1.96h-.65v-1.95s-1.61-2.67-1.61-2.67l-.03-.05h.76s1.16,1.95,1.21,2.04l1.2-2.04h.76s-.03.05-.03.05ZM88.47,59.95c-.34.38-.82.6-1.33.61-1.22.08-2.07-.82-2.16-2.28-.23-1.15.52-2.27,1.67-2.49.07-.01.14-.02.21-.03,1.21-.07,2.07.85,2.16,2.28.08.68-.12,1.37-.55,1.91M90.8,60.2l-.65.06-.47-4.63,2.22-.23h.03l.06.63-1.6.16c0,.05.12,1.22.12,1.28.06,0,1.53-.15,1.53-.15l.07.63s-1.47.15-1.53.16c0,.06.21,2.08.21,2.08M98.17,59.21s-.86.13-.88.13c0,0-1.99-1.78-2.1-1.88.03.15.34,2.17.34,2.17l-.65.1-.71-4.6.64-.1.3,1.95c.21-.33,1.39-2.2,1.42-2.22l.78-.12h.07s-1.6,2.47-1.6,2.47c.04.04,2.47,2.1,2.47,2.1h-.07ZM100.42,58.85c-1.21.24-2.17-.53-2.46-1.96-.39-1.1.2-2.31,1.3-2.7.07-.02.14-.04.21-.06,1.18-.24,2.17.55,2.46,1.96.29,1.43-.31,2.52-1.51,2.76M105.59,57.59l-1.02-1.41c-.13-.28-.46-.4-.74-.26,0,0,0,0,0,0,0,0-.27.07-.32.08.01.06.49,1.99.49,1.99l-.63.16-1.12-4.53,1.01-.25c.45-.17.94-.15,1.38.04.27.19.46.48.52.8.02.09.03.19.03.29,0,.4-.22.76-.58.94.2.05.36.18.47.35l1.23,1.62-.71.18ZM107.21,57.16l-1.3-4.48,2.26-.65h.03s.17.61.17.61c0,0-1.6.47-1.65.48.02.05.34,1.18.36,1.24.05-.02,1.5-.44,1.5-.44l.18.62-1.5.44c0,.06.39,1.35.4,1.4.06-.01,1.65-.48,1.65-.48l.18.61-2.28.66ZM113.41,55.2l-.77-.96s-1.85.62-1.88.63c0,.04-.03,1.24-.03,1.24l-.65.22.21-4.99.61-.21h.02l3.17,3.85-.67.22ZM86.36,13.7c.32.02.63-.08.86-.29.36-.38.56-.88.56-1.41.05-.52-.1-1.05-.43-1.46-.44-.47-1.18-.5-1.67-.09-.36.38-.57.88-.57,1.41-.04.81.26,1.78,1.24,1.83M110.77,54.24c.07-.03,1.4-.47,1.48-.5-.05-.06-1.34-1.68-1.43-1.79,0,.15-.05,2.22-.05,2.29M121.07,13.67c-.29-.44-.7-.79-1.17-1.02-24.86-10.2-52.74-10.2-77.6,0-.47.23-.88.58-1.17,1.02-.35.71-.51,1.49-.48,2.28v38.12c-.03.79.13,1.58.48,2.29.28.41.65.74,1.09.98,12.33,5.08,25.55,7.69,38.89,7.68,13.24,0,27.46-2.74,38.88-7.68.44-.23.81-.57,1.09-.98.35-.71.52-1.5.48-2.29V15.94c.03-.79-.13-1.57-.48-2.28M120.01,54.08c.04.44-.04.89-.22,1.3-.15.28-.38.52-.67.67-11.29,4.98-25.38,7.45-38.03,7.45s-26.74-2.47-38.03-7.44c-.28-.15-.51-.39-.67-.67-.18-.41-.25-.86-.22-1.3V15.97c-.04-.44.04-.89.22-1.3.15-.28.38-.52.67-.67,11.29-4.98,25.38-7.46,38.03-7.46s26.74,2.48,38.03,7.46c.28.15.51.39.67.67.18.41.25.86.22,1.3v38.11ZM87.75,56.67c-.24-.21-.54-.31-.86-.28-.31.01-.6.15-.81.38-.61.88-.55,2.06.16,2.86.24.21.55.31.87.28.32,0,.62-.15.83-.38.59-.89.52-2.06-.18-2.87M68.4,55.76s-.48-.07-.54-.08c0,.06-.17,1.27-.18,1.33.06,0,.47.06.47.06.25.05.51,0,.72-.13.13-.11.22-.26.23-.43,0-.04,0-.07,0-.11,0-.35-.25-.58-.71-.64M100.47,54.92c-.55-.34-1.27-.2-1.64.33-.26.46-.33.99-.2,1.5.16.8.69,1.67,1.66,1.47.31-.06.59-.24.76-.5.48-.96.24-2.12-.58-2.81M103.55,53.94l-.52.13c.02.06.31,1.24.33,1.3.08-.02.46-.11.46-.11.45-.11.7-.36.7-.7,0-.06-.01-.12-.03-.18-.1-.4-.44-.56-.93-.44M61.06,12.07c-.02.15-.35,2.19-.36,2.27.08-.02,1.46-.28,1.54-.29-.04-.07-1.1-1.84-1.18-1.98"/>
        <path id="_패스_284" data-name="패스 284" class="cls-2" d="M172.55,49.16c4.14.11,7.6-3.14,7.73-7.29-.24-4.26-3.89-7.52-8.15-7.27-3.92.22-7.05,3.35-7.27,7.27.17,4.11,3.58,7.34,7.69,7.29M172.55,37.33c1.77,0,3.14,2.01,3.14,4.58s-1.41,4.62-3.14,4.62-3.11-2.07-3.11-4.62,1.39-4.58,3.11-4.58M185.89,34.6h-4.83l.21.13c.68.55,1.04,1.4.95,2.26v13.32c-1.44.4-2.94.6-4.44.59h-13.21v2.97h13.03c1.58,0,3.15-.31,4.62-.93v9.2h4.69v-26.62c0-.64-.33-.93-1.02-.93"/>
        <path id="_패스_285" data-name="패스 285" class="cls-2" d="M190.54,58.3h10.02v-7.9h4.95v7.9h10.06v2.71h-25.03v-2.71Z"/>
        <path id="_패스_286" data-name="패스 286" class="cls-2" d="M198.45,45.12v-6.6h13.62v-2.67h-19.51l.18.12c.74.54,1.17,1.41,1.16,2.33v10.21c-.11,1.56,1.07,2.91,2.63,3.02.13,0,.26,0,.39,0h15.16v-2.65h-13.62v-3.76Z"/>
        <path id="_패스_287" data-name="패스 287" class="cls-2" d="M258.21,50.51h7.11v-14.73h-20.13l-.04.12.06.03c.83.46,1.3,1.37,1.2,2.31v9.25c-.1,1.57,1.1,2.92,2.67,3.02.13,0,.26,0,.39,0h4.05v7.86h-9.42v2.65h23.54v-2.65h-9.43v-7.86ZM251.11,38.46h9.52v9.43h-9.52v-9.43Z"/>
        <path id="_패스_288" data-name="패스 288" class="cls-2" d="M304.68,45.31c3.97,0,7.09-2.5,7.09-5.7s-3.18-5.7-7.09-5.7-7.12,2.55-7.12,5.7,3.12,5.7,7.12,5.7M304.68,36.45c1.62.11,2.85,1.52,2.74,3.14,0,.01,0,.02,0,.03.13,1.63-1.08,3.05-2.71,3.18,0,0-.02,0-.03,0-1.61-.09-2.84-1.48-2.74-3.08,0-.03,0-.06,0-.09-.15-1.6,1.03-3.02,2.63-3.17.03,0,.07,0,.1,0"/>
        <path id="_패스_289" data-name="패스 289" class="cls-2" d="M224.95,44.19c1.65,2.28,3.98,3.97,6.66,4.83h.04s2.36-2.19,2.36-2.19l-.1-.04c-3.76-1.54-6.59-5.38-6.59-8.95v-2.82h-6.07l.22.14c.71.41,1.13,1.18,1.1,2v.68c0,3.56-3.21,7.96-6.61,9.06l-.11.03,2.37,2.2h.03c1.95-.41,5.67-3.01,6.69-4.95"/>
        <path id="_패스_290" data-name="패스 290" class="cls-2" d="M238.94,34.6h-4.95l.22.14c.72.5,1.12,1.35,1.04,2.23v2.48h-5.13v2.65h5.13v8.4c-1.33-.53-2.74-.8-4.17-.8-4.85,0-8.79,3.05-8.79,6.78s3.94,6.77,8.79,6.77,8.86-3.04,8.86-6.77c0-.07,0-.13,0-.19h0v-20.75c0-.63-.32-.93-1.01-.93M231.04,60.64c-2.29-.07-4.08-1.99-4.01-4.27.07-2.2,1.85-3.96,4.06-4.01,2.26-.02,4.11,1.79,4.14,4.05,0,.03,0,.06,0,.1-.02,2.3-1.89,4.15-4.19,4.14"/>
        <path id="_패스_291" data-name="패스 291" class="cls-2" d="M318.35,34.52h-4.71l.17.12c.6.62.92,1.46.86,2.32v13.64h-5.66v2.33h5.66v6.53h-8.92v-4.94h-5.19l.07.12c.32.7.46,1.47.42,2.23v2.24c-.1,1.57,1.1,2.92,2.67,3.02.11,0,.22,0,.33,0h15.3v-26.68c0-.63-.32-.93-1.01-.93"/>
        <path id="_패스_292" data-name="패스 292" class="cls-2" d="M307.66,48.65h5.76v-2.52h-16.82v2.52h5.75c-.05.93-1.19,2.03-3.67,2.3h-.06v2.53h.07c4.31,0,8-1.99,8.98-4.84"/>
        <path id="_패스_293" data-name="패스 293" class="cls-2" d="M270.54,37.64v8.42c-.1,1.55,1.07,2.89,2.63,2.99.13,0,.26,0,.39,0h10.78v-2.2h3.46v3.64c-1.32-.53-2.74-.8-4.17-.8-4.85,0-8.78,3.04-8.78,6.78s3.94,6.77,8.78,6.77,8.86-3.04,8.86-6.77c0-.08,0-.15,0-.23h0v-20.71c0-.63-.32-.93-1.01-.93h-4.94l.22.14c.72.5,1.12,1.35,1.04,2.23v1.36h-3.46v-2.83h-5.9l.2.11.09.04c.74.37,1.18,1.16,1.08,1.99v1.95h-4.71v-4.09h-5.55v.14c.37.14.98.59.98,2.01M283.57,60.64c-2.29-.02-4.12-1.9-4.1-4.19s1.9-4.12,4.19-4.1c2.27.02,4.1,1.87,4.1,4.14,0,2.28-1.84,4.14-4.12,4.14-.02,0-.04,0-.06,0M284.33,40.93h3.46v3.31h-3.46v-3.31ZM275.1,42.26h4.71v4.15h-4.71v-4.15Z"/>
        <path id="_패스_294" data-name="패스 294" class="cls-2" d="M159.3,35.52c0-.63-.32-.93-1-.93h-4.39c.17.17.32.35.45.54.29.46.43,1,.39,1.55v2.16h-4.94v2.5h4.91v3.38h-4.91v2.5h4.91v14.93h4.62v-26.64h-.04Z"/>
        <path id="_패스_295" data-name="패스 295" class="cls-2" d="M144.43,34.91c-4.26,0-7.73,3.98-7.73,8.86s3.46,8.86,7.73,8.86,7.79-3.98,7.79-8.86-3.49-8.86-7.79-8.86M144.39,49.93c-1.7,0-3.14-2.86-3.14-6.12s1.46-6.11,3.17-6.11,3.23,2.8,3.23,6.11-1.46,6.12-3.26,6.12"/>
        <path id="_패스_296" data-name="패스 296" class="cls-2" d="M234.7,24.23c.72-1.54,1.04-3.23.95-4.92v-9.46h-11.81v1.64h8.98v6.66c0,2.46-.06,4.94-.69,6.09h-.48v-7.67h-3.07l.07.07c.28.4.4.89.34,1.37v6.23h-1.34v-7.67h-3.05l.06.09c.24.41.35.88.32,1.36v6.23h-2.29v1.62h14.49v-1.62h-2.47Z"/>
        <path id="_패스_297" data-name="패스 297" class="cls-2" d="M203.12,9.02h-2.61l.11.08c.4.33.6.85.53,1.37v3.14h-1.26v-4.02c0-.39-.2-.57-.62-.57h-2.67l.12.08c.41.33.62.84.56,1.36v7.42c-.6.24-1.24.35-1.88.34h-3.36v-6.9h4.04v-1.64h-7.56l.09.08c.39.42.59.98.54,1.55v6.73c-.08.92.6,1.73,1.52,1.81.09,0,.18,0,.28,0h4.38c.7.02,1.38-.17,1.97-.54v6.55h2.61v-10.63h1.26v10.63h2.59V9.58c0-.39-.2-.57-.62-.57"/>
        <path id="_패스_298" data-name="패스 298" class="cls-2" d="M219.4,12.47v-2.9c0-.39-.19-.56-.62-.56h-2.98l.13.08c.43.32.66.83.61,1.36v9.39h-8.92v1.62h8.69c.16,0,.21.09.21.34v4.06h2.87v-11.75h2.57v-1.63h-2.57ZM215.08,14.88c-.01-1.01-.46-1.96-1.22-2.62h1.41v-1.58h-3.15v-1.82h-3.19l-.02.07s.36.22.36,1.05v.7h-3.15v1.57h1.43c-.77.66-1.21,1.61-1.23,2.62,0,2.08,1.96,3.78,4.37,3.78s4.38-1.7,4.38-3.78M208.89,14.88c-.22-1.01.41-2,1.42-2.22,1.01-.22,2,.41,2.22,1.42.06.27.06.54,0,.81.22,1.01-.42,2-1.42,2.22s-2-.42-2.22-1.42c-.06-.26-.06-.53,0-.8"/>
        <path id="_패스_299" data-name="패스 299" class="cls-2" d="M165.18,16.79v-1.11h4.35v-1.58h-8.65v-.9h8.64v-1.61h-8.64v-.94h8.64v-1.58h-12.18l.1.07c.42.4.63.97.57,1.54v3.2c.04,1.03.91,1.84,1.94,1.8.03,0,.06,0,.09,0h2.26v1.11h-6.03v1.58h15.02v-1.58h-6.12ZM161.23,23.29h6.99c.89,0,1.32-.49,1.32-1.51v-1.97c0-.39-.2-.57-.62-.57h-10.73v1.62h8.48v.9h-8.86l-.02.08s.56.2.56,1.32v.83c.04,1.07.94,1.9,2.01,1.85.01,0,.03,0,.04,0h9.17v-1.6h-8.35v-.96Z"/>
        <path id="_패스_300" data-name="패스 300" class="cls-2" d="M185.54,9.02h-3.03l.14.09c.44.31.68.82.63,1.36v5.81c-.84.3-1.73.45-2.62.43h-4.91v-2h4.16c.89,0,1.32-.49,1.32-1.5v-3.21c0-.39-.19-.56-.62-.56h-7.9v1.6h5.87v2.07h-6.29l.09.08c.37.41.55.97.5,1.52v1.79c-.07.93.62,1.74,1.54,1.81.09,0,.18,0,.27,0h5.83c.96.02,1.92-.21,2.77-.67v2.2h-9.12v1.62h8.91c.15,0,.21.09.21.34v4.06h2.87V9.58c0-.39-.2-.57-.62-.57"/>
        <path id="_패스_301" data-name="패스 301" class="cls-2" d="M152.95,12.87v-3.19c0-.55-.33-.66-.61-.66h-2.93l.12.08c.41.33.62.84.56,1.36v15.39h2.87v-11.37h2.57v-1.62h-2.57ZM139.81,11.22h4.93v.3c0,3.89-1.78,6.51-4.9,7.21h-.03v1.61h.04c4-.19,8.06-3.35,8.06-9.04v-1.71h-8.1v1.62Z"/>
      </g>
    </g>
  </g>
</svg>